<svg width="36" height="36" viewBox="0 0 36 36" fill="none" xmlns="http://www.w3.org/2000/svg">
<g id="vuesax/linear/chart-success">
<g id="chart-success">
<path id="Vector" d="M33 19.5V13.5C33 6 30 3 22.5 3H13.5C6 3 3 6 3 13.5V22.5C3 30 6 33 13.5 33H19.5" stroke="#01E887" stroke-width="2" stroke-linecap="round" stroke-linejoin="round"/>
<path id="Vector_2" d="M33 19.5V13.5C33 6 30 3 22.5 3H13.5C6 3 3 6 3 13.5V22.5C3 30 6 33 13.5 33H19.5" stroke="#01E887" stroke-width="2" stroke-linecap="round" stroke-linejoin="round"/>
<path id="Vector_3" d="M33 19.5V13.5C33 6 30 3 22.5 3H13.5C6 3 3 6 3 13.5V22.5C3 30 6 33 13.5 33H19.5" stroke="#01E887" stroke-width="2" stroke-linecap="round" stroke-linejoin="round"/>
<path id="Vector_4" d="M24 29.145L26.37 31.5L31.5 25.5" stroke="#01E887" stroke-width="2" stroke-linecap="round" stroke-linejoin="round"/>
<path id="Vector_5" d="M10.5 15.75V20.25" stroke="#01E887" stroke-width="2" stroke-linecap="round" stroke-linejoin="round"/>
<path id="Vector_6" d="M18 15.75V20.25" stroke="#01E887" stroke-width="2" stroke-linecap="round" stroke-linejoin="round"/>
<path id="Vector_7" d="M25.5 15.75V20.25" stroke="#01E887" stroke-width="2" stroke-linecap="round" stroke-linejoin="round"/>
</g>
</g>
</svg>
