<svg width="19" height="19" viewBox="0 0 19 19" fill="none" xmlns="http://www.w3.org/2000/svg">
<g id="vuesax/linear/directbox-notif">
<g id="directbox-notif">
<path id="Vector" d="M5.54167 9.5C2.375 9.5 2.375 10.9171 2.375 12.6667V13.4583C2.375 15.6433 2.375 17.4167 6.33333 17.4167H12.6667C15.8333 17.4167 16.625 15.6433 16.625 13.4583V12.6667C16.625 10.9171 16.625 9.5 13.4583 9.5C12.6667 9.5 12.445 9.66625 12.0333 9.975L11.2258 10.83C10.2917 11.8275 8.70833 11.8275 7.76625 10.83L6.96667 9.975C6.555 9.66625 6.33333 9.5 5.54167 9.5Z" stroke="#F0F0F0" stroke-width="1.5" stroke-miterlimit="10" stroke-linecap="round" stroke-linejoin="round"/>
<path id="Vector_2" d="M15.0418 9.49992V4.74992C15.0418 3.00034 15.0418 1.58325 11.8752 1.58325H7.12516C3.9585 1.58325 3.9585 3.00034 3.9585 4.74992V9.49992" stroke="#F0F0F0" stroke-width="1.5" stroke-miterlimit="10" stroke-linecap="round" stroke-linejoin="round"/>
<path id="Vector_3" d="M8.35205 7.30713H10.9883" stroke="#F0F0F0" stroke-width="1.5" stroke-linecap="round" stroke-linejoin="round"/>
<path id="Vector_4" d="M7.69507 4.93213H11.6534" stroke="#F0F0F0" stroke-width="1.5" stroke-linecap="round" stroke-linejoin="round"/>
</g>
</g>
</svg>
