<svg width="18" height="18" viewBox="0 0 18 18" fill="none" xmlns="http://www.w3.org/2000/svg">
<g id="Group 1000000876">
<path id="Vector" d="M15.75 8.625V11.25H13.5C12.9033 11.25 12.331 11.4871 11.909 11.909C11.4871 12.331 11.25 12.9033 11.25 13.5V15.75H3.375C3.07663 15.75 2.79048 15.6315 2.5795 15.4205C2.36853 15.2095 2.25 14.9234 2.25 14.625V3.375C2.25 3.07663 2.36853 2.79048 2.5795 2.5795C2.79048 2.36853 3.07663 2.25 3.375 2.25H10.125C10.4234 2.25 10.7095 2.13147 10.9205 1.9205C11.1315 1.70952 11.25 1.42337 11.25 1.125C11.25 0.826631 11.1315 0.540483 10.9205 0.329505C10.7095 0.118526 10.4234 0 10.125 0L3.375 0C2.47989 0 1.62145 0.355579 0.988515 0.988515C0.355579 1.62145 0 2.47989 0 3.375L0 14.625C0 15.5201 0.355579 16.3785 0.988515 17.0115C1.62145 17.6444 2.47989 18 3.375 18H12.363C13.2577 18 14.1159 17.6447 14.7488 17.0123L17.0115 14.7495C17.6442 14.1167 17.9998 13.2586 18 12.3638V8.625C18 8.32663 17.8815 8.04048 17.6705 7.8295C17.4595 7.61853 17.1734 7.5 16.875 7.5C16.5766 7.5 16.2905 7.61853 16.0795 7.8295C15.8685 8.04048 15.75 8.32663 15.75 8.625Z" fill="white"/>
<path id="Vector_2" d="M13.3447 1.34477L3.96975 10.7198C3.82909 10.8604 3.75004 11.0511 3.75 11.25V13.5C3.75 13.6989 3.82902 13.8897 3.96967 14.0304C4.11032 14.171 4.30109 14.25 4.5 14.25H6.75C6.9489 14.25 7.13963 14.1709 7.28025 14.0303L16.5285 4.78202C16.8414 4.48025 17.0715 4.10305 17.1965 3.68668C17.3216 3.27031 17.3374 2.82878 17.2425 2.40452C17.1363 2.00995 16.9286 1.65009 16.64 1.36078C16.3515 1.07148 15.9922 0.86283 15.5979 0.755626C15.2036 0.648422 14.7881 0.646403 14.3928 0.749771C13.9974 0.853138 13.6361 1.05828 13.3447 1.34477Z" fill="white"/>
</g>
</svg>
