<svg width="19" height="15" viewBox="0 0 19 15" fill="none" xmlns="http://www.w3.org/2000/svg">
<g id="Group 1000000857">
<path id="Vector" d="M18.8587 6.47679C18.1636 4.95675 15.4378 0 9.50014 0C3.56249 0 0.836711 4.95675 0.14161 6.47679C0.0483004 6.68049 0 6.90192 0 7.12597C0 7.35003 0.0483004 7.57146 0.14161 7.77516C0.836711 9.29361 3.56249 14.2504 9.50014 14.2504C15.4378 14.2504 18.1636 9.29361 18.8587 7.77357C18.9518 7.5701 19 7.34895 19 7.12518C19 6.90141 18.9518 6.68026 18.8587 6.47679ZM9.50014 11.8753C8.56066 11.8753 7.64227 11.5967 6.86112 11.0748C6.07996 10.5528 5.47113 9.81095 5.1116 8.94298C4.75208 8.075 4.65801 7.11991 4.84129 6.19848C5.02458 5.27705 5.47698 4.43066 6.1413 3.76634C6.80562 3.10202 7.65201 2.64962 8.57344 2.46633C9.49487 2.28305 10.45 2.37712 11.3179 2.73664C12.1859 3.09617 12.9278 3.705 13.4497 4.48616C13.9717 5.26731 14.2503 6.1857 14.2503 7.12518C14.249 8.38461 13.7481 9.59209 12.8576 10.4826C11.967 11.3732 10.7596 11.874 9.50014 11.8753Z" fill="white"/>
<path id="Vector_2" d="M9.49878 10.292C11.2477 10.292 12.6655 8.87419 12.6655 7.12524C12.6655 5.3763 11.2477 3.9585 9.49878 3.9585C7.74983 3.9585 6.33203 5.3763 6.33203 7.12524C6.33203 8.87419 7.74983 10.292 9.49878 10.292Z" fill="white"/>
</g>
</svg>
