<svg width="20" height="30" viewBox="0 0 20 30" fill="none" xmlns="http://www.w3.org/2000/svg">
<g id="Group">
<path id="Vector" d="M13.9208 9.8256C14.8696 10.2269 15.7471 10.7541 16.543 11.3969V6.85309C16.543 3.07454 13.4684 0 9.68986 0H9.58443C5.80928 0 2.73474 3.07454 2.73474 6.85309V11.3969C3.53058 10.7541 4.40805 10.227 5.35694 9.8256C5.61202 9.71676 5.8739 9.61813 6.13578 9.52971V6.85309C6.13578 4.94851 7.68325 3.40104 9.58783 3.40104H9.69326C11.5978 3.40104 13.1453 4.94851 13.1453 6.85309V9.53311C13.4038 9.61813 13.6657 9.71676 13.9208 9.8256Z" fill="white"/>
<path id="Vector_2" d="M0 19.9607C0 25.2833 4.31592 29.5992 9.63854 29.5992C14.9612 29.5992 19.2771 25.2867 19.2771 19.9607C19.2771 17.3453 18.233 14.9714 16.5427 13.2334C15.5904 12.2574 14.434 11.4819 13.1416 10.9752C12.0567 10.5501 10.8731 10.3188 9.63857 10.3188C8.404 10.3188 7.22044 10.5501 6.1355 10.9752C4.84311 11.4785 3.68676 12.254 2.73447 13.2334C1.04072 14.9714 0 17.3453 0 19.9607ZM7.15575 18.0153C7.18976 16.6991 8.26108 15.6278 9.57729 15.5972C10.9751 15.5632 12.1213 16.6889 12.1213 18.0799C12.1213 18.2262 12.1077 18.369 12.0839 18.505C11.9613 19.2091 11.5431 19.8144 10.958 20.1818C10.7166 20.3348 10.5942 20.6205 10.6554 20.896L11.3935 24.3957C11.4377 24.6065 11.2778 24.8072 11.0601 24.8072H8.21691C7.99924 24.8072 7.83936 24.6099 7.8836 24.3957L8.62159 20.896C8.67941 20.6171 8.56038 20.3314 8.31894 20.1784C7.73396 19.811 7.31563 19.2091 7.19316 18.5016C7.16595 18.3452 7.15238 18.182 7.15575 18.0153Z" fill="white"/>
</g>
</svg>
