<svg width="20" height="16" viewBox="0 0 20 16" fill="none" xmlns="http://www.w3.org/2000/svg">
<g id="Hide">
<path id="Vector" d="M10 9.74998C9.58581 9.74998 9.25002 10.0858 9.25002 10.5C9.25002 10.9142 9.58581 11.25 10 11.25V9.74998ZM13.25 7.99998C13.25 7.58577 12.9142 7.24998 12.5 7.24998C12.0858 7.24998 11.75 7.58577 11.75 7.99998H13.25ZM2.68391 6.43781L2.07465 6.00043L2.68391 6.43781ZM2.68373 9.56189L3.29299 9.12452L3.29299 9.12452L2.68373 9.56189ZM4.82333 12.0773L5.38628 11.5817L5.36727 11.5602L5.34666 11.5401L4.82333 12.0773ZM15.0842 3.83331L14.5655 4.37505L14.5869 4.39545L14.6097 4.41411L15.0842 3.83331ZM1.94745 7.99996L1.19745 7.99995L1.94745 7.99996ZM17.3161 9.56215L17.9254 9.99953V9.99953L17.3161 9.56215ZM17.3161 6.43775L16.7068 6.87513L16.7068 6.87513L17.3161 6.43775ZM17.0929 4.91318C16.8308 4.59245 16.3583 4.54494 16.0376 4.80706C15.7169 5.06918 15.6693 5.54167 15.9315 5.8624L17.0929 4.91318ZM6.68755 12.6753C6.35113 12.4336 5.88251 12.5105 5.64087 12.8469C5.39923 13.1833 5.47606 13.6519 5.81249 13.8936L6.68755 12.6753ZM18.0526 7.99997L17.3026 7.99998L18.0526 7.99997ZM1.19817 14.081C0.874719 14.3398 0.822278 14.8117 1.08104 15.1352C1.33979 15.4586 1.81176 15.5111 2.13521 15.2523L1.19817 14.081ZM18.8019 1.91896C19.1253 1.66021 19.1778 1.18824 18.919 0.864792C18.6602 0.541345 18.1883 0.488904 17.8648 0.747661L18.8019 1.91896ZM15.1456 3.88349L15.6142 4.46914L15.1456 3.88349ZM4.85639 12.1149L5.32492 12.7005L4.85639 12.1149ZM10 4.74998C8.20509 4.74998 6.75002 6.20505 6.75002 7.99998H8.25002C8.25002 7.03348 9.03352 6.24998 10 6.24998V4.74998ZM6.75002 7.99998C6.75002 8.76324 7.01406 9.4669 7.45522 10.0216L8.62924 9.08801C8.39156 8.78913 8.25002 8.41212 8.25002 7.99998H6.75002ZM12.537 5.96856C11.9427 5.22699 11.0268 4.74998 10 4.74998V6.24998C10.5524 6.24998 11.0447 6.50502 11.3666 6.90668L12.537 5.96856ZM10 11.25C11.7949 11.25 13.25 9.79491 13.25 7.99998H11.75C11.75 8.96648 10.9665 9.74998 10 9.74998V11.25ZM10 0.583313C8.17462 0.583313 6.5339 1.4856 5.21394 2.56636C3.88539 3.65414 2.8014 4.9881 2.07465 6.00043L3.29317 6.8752C3.98098 5.91711 4.97724 4.69882 6.16421 3.72696C7.35976 2.74807 8.66981 2.08331 10 2.08331V0.583313ZM2.07446 9.99927C2.62879 10.7714 3.38722 11.7254 4.3 12.6146L5.34666 11.5401C4.51576 10.7307 3.81403 9.85032 3.29299 9.12452L2.07446 9.99927ZM15.6029 3.29157C14.1518 1.9023 12.208 0.583313 10 0.583313V2.08331C11.62 2.08331 13.2028 3.07033 14.5655 4.37505L15.6029 3.29157ZM2.07465 6.00043C1.61847 6.63587 1.19746 7.17862 1.19745 7.99995L2.69745 7.99996C2.69745 7.7487 2.76741 7.60756 3.29317 6.8752L2.07465 6.00043ZM3.29299 9.12452C2.76737 8.39233 2.69745 8.25124 2.69745 7.99996L1.19745 7.99995C1.19744 8.82128 1.61838 9.36394 2.07446 9.99927L3.29299 9.12452ZM10 15.4166C11.8254 15.4166 13.4661 14.5144 14.7861 13.4336C16.1146 12.3458 17.1986 11.0119 17.9254 9.99953L16.7069 9.12476C16.0191 10.0829 15.0228 11.3011 13.8358 12.273C12.6403 13.2519 11.3302 13.9166 10 13.9166V15.4166ZM17.9253 6.00036C17.6843 5.6646 17.4055 5.2956 17.0929 4.91318L15.9315 5.8624C16.2217 6.21751 16.4815 6.56131 16.7068 6.87513L17.9253 6.00036ZM5.81249 13.8936C7.01159 14.7549 8.43738 15.4166 10 15.4166V13.9166C8.86498 13.9166 7.74277 13.4332 6.68755 12.6753L5.81249 13.8936ZM17.9254 9.99953C18.3816 9.36408 18.8026 8.82132 18.8026 7.99997L17.3026 7.99998C17.3026 8.25124 17.2326 8.39239 16.7069 9.12476L17.9254 9.99953ZM16.7068 6.87513C17.2326 7.60755 17.3026 7.74872 17.3026 7.99998L18.8026 7.99997C18.8026 7.17862 18.3816 6.63584 17.9253 6.00036L16.7068 6.87513ZM15.6142 4.46914L18.8019 1.91896L17.8648 0.747661L14.6771 3.29784L15.6142 4.46914ZM14.6097 4.41411L14.6711 4.46428L15.6202 3.3027L15.5587 3.25252L14.6097 4.41411ZM2.13521 15.2523L5.32492 12.7005L4.38787 11.5292L1.19817 14.081L2.13521 15.2523ZM5.32492 12.7005L15.6142 4.46914L14.6771 3.29784L4.38787 11.5292L5.32492 12.7005ZM4.26039 12.5729L4.29345 12.6105L5.41934 11.6193L5.38628 11.5817L4.26039 12.5729Z" fill="#919191"/>
</g>
</svg>
