<svg width="510" height="512" viewBox="0 0 510 512" fill="none" xmlns="http://www.w3.org/2000/svg">
<path d="M410 8.78198V100H501.211L410 8.78198Z" fill="white"/>
<path d="M395 130C386.716 130 380 123.284 380 115V0H165C140.187 0 120 20.187 120 45V212.689C124.942 212.241 129.943 212 135 212C186.128 212 231.897 235.376 262.186 272H425C433.284 272 440 278.716 440 287C440 295.284 433.284 302 425 302H281.948C291.324 320.296 297.37 340.565 299.311 362H425C433.284 362 440 368.716 440 377C440 385.284 433.284 392 425 392H299.311C294.825 441.539 268.357 484.826 229.758 512H465C489.813 512 510 491.813 510 467V130H395ZM425 212H205C196.716 212 190 205.284 190 197C190 188.716 196.716 182 205 182H425C433.284 182 440 188.716 440 197C440 205.284 433.284 212 425 212Z" fill="white"/>
<path d="M135 242C60.561 242 0 302.561 0 377C0 451.439 60.561 512 135 512C209.439 512 270 451.439 270 377C270 302.561 209.439 242 135 242ZM175 392H135C126.716 392 120 385.284 120 377V317C120 308.716 126.716 302 135 302C143.284 302 150 308.716 150 317V362H175C183.284 362 190 368.716 190 377C190 385.284 183.284 392 175 392Z" fill="white"/>
</svg>
