<svg width="19" height="19" viewBox="0 0 19 19" fill="none" xmlns="http://www.w3.org/2000/svg">
<g id="vuesax/linear/like">
<g id="like">
<path id="Vector" d="M5.92212 14.5271L8.37629 16.4271C8.69295 16.7437 9.40545 16.9021 9.88045 16.9021H12.8888C13.8388 16.9021 14.868 16.1896 15.1055 15.2396L17.0055 9.46041C17.4013 8.35208 16.6888 7.40208 15.5013 7.40208H12.3346C11.8596 7.40208 11.4638 7.00624 11.543 6.45208L11.9388 3.91874C12.0971 3.20624 11.6221 2.41458 10.9096 2.17708C10.2763 1.93958 9.48462 2.25625 9.16795 2.73125L5.92212 7.56041" stroke="white" stroke-width="1.5" stroke-miterlimit="10"/>
<path id="Vector_2" d="M1.88403 14.5271V6.76882C1.88403 5.66048 2.35903 5.26465 3.46737 5.26465H4.25903C5.36737 5.26465 5.84237 5.66048 5.84237 6.76882V14.5271C5.84237 15.6355 5.36737 16.0313 4.25903 16.0313H3.46737C2.35903 16.0313 1.88403 15.6355 1.88403 14.5271Z" stroke="white" stroke-width="1.5" stroke-linecap="round" stroke-linejoin="round"/>
</g>
</g>
</svg>
