<svg width="18" height="20" viewBox="0 0 18 20" fill="none" xmlns="http://www.w3.org/2000/svg">
<g id="Lock 2">
<path id="Vector" d="M3.91701 18.9423L4.14877 18.229L3.91701 18.9423ZM0.974324 15.9996L1.68762 15.7679L0.974324 15.9996ZM17.0257 15.9996L16.3124 15.7679L17.0257 15.9996ZM14.083 18.9423L13.8512 18.229L14.083 18.9423ZM14.083 6.55764L13.8512 7.27093L14.083 6.55764ZM17.0257 9.50032L16.3124 9.73208L17.0257 9.50032ZM3.91701 6.55764L4.14877 7.27093L3.91701 6.55764ZM0.974324 9.50032L1.68762 9.73208L0.974324 9.50032ZM9.75 10.9166C9.75 10.5024 9.41421 10.1666 9 10.1666C8.58579 10.1666 8.25 10.5024 8.25 10.9166H9.75ZM8.25 14.5833C8.25 14.9975 8.58579 15.3333 9 15.3333C9.41421 15.3333 9.75 14.9975 9.75 14.5833H8.25ZM7.16667 7.08331H10.8333V5.58331H7.16667V7.08331ZM10.8333 18.4166H7.16667V19.9166H10.8333V18.4166ZM7.16667 18.4166C5.40212 18.4166 4.69772 18.4074 4.14877 18.229L3.68524 19.6556C4.51709 19.9259 5.51887 19.9166 7.16667 19.9166V18.4166ZM0 12.75C0 14.3978 -0.00925303 15.3996 0.261032 16.2314L1.68762 15.7679C1.50925 15.2189 1.5 14.5145 1.5 12.75H0ZM4.14877 18.229C2.98176 17.8498 2.0668 16.9349 1.68762 15.7679L0.261032 16.2314C0.788594 17.8551 2.06157 19.1281 3.68524 19.6556L4.14877 18.229ZM16.5 12.75C16.5 14.5145 16.4907 15.2189 16.3124 15.7679L17.739 16.2314C18.0093 15.3996 18 14.3978 18 12.75H16.5ZM10.8333 19.9166C12.4811 19.9166 13.4829 19.9259 14.3148 19.6556L13.8512 18.229C13.3023 18.4074 12.5979 18.4166 10.8333 18.4166V19.9166ZM16.3124 15.7679C15.9332 16.9349 15.0182 17.8498 13.8512 18.229L14.3148 19.6556C15.9384 19.1281 17.2114 17.8551 17.739 16.2314L16.3124 15.7679ZM18 12.75C18 11.1022 18.0093 10.1004 17.739 9.26856L16.3124 9.73208C16.4907 10.281 16.5 10.9854 16.5 12.75H18ZM13.8512 7.27093C15.0182 7.65012 15.9332 8.56507 16.3124 9.73208L17.739 9.26856C17.2114 7.64489 15.9384 6.37191 14.3148 5.84434L13.8512 7.27093ZM1.5 12.75C1.5 10.9854 1.50925 10.281 1.68762 9.73208L0.261032 9.26856C-0.00925303 10.1004 0 11.1022 0 12.75H1.5ZM3.68524 5.84434C2.06157 6.37191 0.788594 7.64489 0.261032 9.26856L1.68762 9.73208C2.0668 8.56507 2.98176 7.65012 4.14877 7.27093L3.68524 5.84434ZM12.8333 5.41665V6.33331H14.3333V5.41665H12.8333ZM5.16667 6.33331V5.41665H3.66667V6.33331H5.16667ZM9 1.58331C11.1171 1.58331 12.8333 3.29955 12.8333 5.41665H14.3333C14.3333 2.47113 11.9455 0.083313 9 0.083313V1.58331ZM9 0.083313C6.05448 0.083313 3.66667 2.47113 3.66667 5.41665H5.16667C5.16667 3.29955 6.88291 1.58331 9 1.58331V0.083313ZM8.25 10.9166V14.5833H9.75V10.9166H8.25ZM7.16667 5.58331C5.87533 5.58331 4.98821 5.5807 4.29207 5.69797L4.54126 7.17713C5.08261 7.08593 5.81495 7.08331 7.16667 7.08331V5.58331ZM4.29207 5.69797C4.08075 5.73357 3.88052 5.7809 3.68524 5.84434L4.14877 7.27093C4.26479 7.23323 4.39239 7.20221 4.54126 7.17713L4.29207 5.69797ZM3.66667 6.33331V6.43755H5.16667V6.33331H3.66667ZM10.8333 7.08331C12.185 7.08331 12.9174 7.08593 13.4587 7.17713L13.7079 5.69797C13.0118 5.5807 12.1247 5.58331 10.8333 5.58331V7.08331ZM13.4587 7.17713C13.6076 7.20221 13.7352 7.23323 13.8512 7.27093L14.3148 5.84434C14.1195 5.7809 13.9192 5.73357 13.7079 5.69797L13.4587 7.17713ZM12.8333 6.33331V6.43755H14.3333V6.33331H12.8333Z" fill="#0968E5"/>
</g>
</svg>
