<?xml version="1.0" encoding="UTF-8" standalone="no"?>
<!-- Created with Inkscape (http://www.inkscape.org/) -->

<svg
   version="1.1"
   id="svg2"
   width="666.66669"
   height="666.66669"
   viewBox="0 0 666.66669 666.66669"
   sodipodi:docname="9169205.eps"
   xmlns:inkscape="http://www.inkscape.org/namespaces/inkscape"
   xmlns:sodipodi="http://sodipodi.sourceforge.net/DTD/sodipodi-0.dtd"
   xmlns="http://www.w3.org/2000/svg"
   xmlns:svg="http://www.w3.org/2000/svg">
  <defs
     id="defs6">
    <clipPath
       clipPathUnits="userSpaceOnUse"
       id="clipPath26">
      <path
         d="m 1426.09,2371.23 c 0,0 26.24,55.8 39.63,129.46 -2.24,23.1 -5.44,45.54 -9.68,67.27 -3.62,18.99 -8.14,37.38 -13.09,55.47 -13.24,-22.66 -29.85,-46.3 -48.42,-61.6 0,0 20.8,44.18 34.82,105.8 -14.39,41.68 -32.32,80.92 -53.36,118.02 -6.79,-22.35 -15.82,-45.04 -27.74,-62.08 0,0 7.36,40.28 7.41,95.76 -4.03,6.32 -8,12.7 -12.23,18.9 -23.45,34.19 -49.89,66.34 -79.31,96.43 -2.4,-25.34 -7.17,-52.2 -16.39,-73.04 0,0 -0.08,42.61 -10.44,99.02 -29.79,27.36 -62.54,52.69 -98.71,75.66 1.04,-24.44 0.06,-50.18 -5.6,-71.19 0,0 -5.6,37.74 -21.51,87.83 -32.29,18.67 -67.34,35.45 -105.41,50.15 4.34,-20.24 7.11,-41.01 6.12,-59.25 0,0 -10.46,29.07 -30.93,68.38 -27.527,9.56 -56.914,17.84 -88.262,24.77 -31.894,7.04 -65.578,12.86 -104.898,14.8 -12.266,-37.41 -18.895,-70.94 -23.735,-103.24 -4.761,-31.75 -7.554,-62.15 -8.488,-91.27 29.371,-33.2 52.778,-53.37 52.778,-53.37 -17.379,5.6 -35.786,15.63 -53.129,26.92 0.093,-40.8 3.203,-79.54 9.078,-116.37 41.066,-32.8 74.297,-51.54 74.297,-51.54 -21.633,2.24 -46.024,10.55 -68.477,20.26 8.504,-41.99 20.43,-81.64 35.301,-119.25 48.965,-29.87 88.723,-45.21 88.723,-45.21 -22.762,-1.13 -49.555,4.02 -74.071,10.86 17.559,-38.25 38.113,-74.44 61.641,-108.58 4.277,-6.17 8.805,-12.16 13.254,-18.2 51.832,-19.81 92.074,-27.36 92.074,-27.36 -20.172,-5.03 -44.602,-5.33 -67.902,-3.67 27.109,-32.93 57.332,-63.72 91.096,-92.09 62.56,-8.97 111.25,-5.36 111.25,-5.36 -20.94,-11.86 -48.95,-18.91 -74.86,-23.16 15.12,-11.1 30.67,-21.9 47.11,-32.08 18.77,-11.75 38.57,-22.77 59.34,-33.13 73.57,-13.87 135.07,-9.36 135.07,-9.36 -18.3,-10.36 -42.02,-17.04 -65,-21.41 6.54,-2.5 13.15,-4.95 19.87,-7.32 27.91,-9.78 57.67,-18.3 89.5,-25.39 31.82,-7.1 65.38,-13 104.54,-15.05 12.11,37.3 18.62,70.75 23.38,103 4.78,32.26 7.49,63.1 8.35,92.66 0.18,7.11 0.27,14.17 0.28,21.17 -12.31,-19.89 -27.04,-39.65 -43.27,-53.02"
         id="path24" />
    </clipPath>
    <clipPath
       clipPathUnits="userSpaceOnUse"
       id="clipPath42">
      <path
         d="m 4145.56,1498.1 c 0,0 61.53,-3.97 134.97,10.55 20.67,10.55 40.38,21.76 59.04,33.66 16.36,10.34 31.81,21.27 46.83,32.5 -25.95,4.02 -54.03,10.82 -75.07,22.49 0,0 48.73,-3.17 111.21,6.36 33.5,28.66 63.45,59.72 90.26,92.89 -23.28,-1.87 -47.71,-1.77 -67.93,3.07 0,0 40.17,7.91 91.83,28.18 4.39,6.08 8.87,12.11 13.1,18.3 23.21,34.37 43.44,70.74 60.66,109.14 -24.45,-7.06 -51.19,-12.46 -73.97,-11.51 0,0 39.62,15.69 88.31,45.99 14.55,37.75 26.12,77.5 34.24,119.57 -22.36,-9.93 -46.68,-18.45 -68.29,-20.87 0,0 33.07,19.03 73.83,52.19 5.56,36.89 8.32,75.64 8.05,116.45 -17.25,-11.45 -35.56,-21.64 -52.88,-27.4 0,0 23.22,20.39 52.29,53.84 -1.19,29.11 -4.26,59.49 -9.3,91.2 -5.12,32.25 -12.06,65.72 -24.65,103.01 -39.3,-2.28 -72.93,-8.4 -104.76,-15.73 -31.29,-7.2 -60.61,-15.75 -88.05,-25.54 -20.11,-39.5 -30.31,-68.67 -30.31,-68.67 -1.16,18.23 1.44,39.03 5.59,59.3 -37.94,-15.03 -72.84,-32.12 -104.96,-51.08 -15.46,-50.23 -20.73,-88.01 -20.73,-88.01 -5.85,20.95 -7.05,46.69 -6.24,71.13 -35.95,-23.29 -68.47,-48.92 -98.02,-76.53 -9.86,-56.51 -9.57,-99.12 -9.57,-99.12 -9.39,20.76 -14.41,47.58 -17.03,72.9 -29.16,-30.35 -55.3,-62.74 -78.45,-97.14 -4.17,-6.23 -8.08,-12.64 -12.06,-19.01 0.54,-55.47 8.27,-95.68 8.27,-95.68 -12.07,16.92 -21.31,39.54 -28.3,61.83 -20.71,-37.29 -38.29,-76.69 -52.31,-118.5 14.57,-61.49 35.76,-105.48 35.76,-105.48 -18.7,15.14 -35.52,38.63 -48.96,61.16 -4.79,-18.13 -9.14,-36.55 -12.59,-55.58 -4.05,-21.77 -7.06,-44.23 -9.09,-67.35 14.05,-73.53 40.78,-129.11 40.78,-129.11 -16.35,13.24 -31.25,32.86 -43.73,52.63 0.07,-6.99 0.21,-14.04 0.46,-21.16 1.12,-29.55 4.11,-60.36 9.17,-92.58 5.06,-32.21 11.86,-65.6 24.31,-102.78 39.13,2.4 72.64,8.59 104.39,15.97 31.77,7.38 61.46,16.16 89.28,26.19 6.69,2.44 13.28,4.94 19.79,7.5 -23.01,4.15 -46.78,10.63 -65.17,20.83"
         id="path40" />
    </clipPath>
    <clipPath
       clipPathUnits="userSpaceOnUse"
       id="clipPath84">
      <path
         d="M 1459.93,2471.64 H 1033.5 L 706.117,941.98 c 271.543,-58.519 540.593,-58.519 540.593,-58.519 0,0 269.06,0 540.6,58.519 l -327.38,1529.66"
         id="path82" />
    </clipPath>
  </defs>
  <sodipodi:namedview
     id="namedview4"
     pagecolor="#ffffff"
     bordercolor="#000000"
     borderopacity="0.25"
     inkscape:showpageshadow="2"
     inkscape:pageopacity="0.0"
     inkscape:pagecheckerboard="0"
     inkscape:deskcolor="#d1d1d1" />
  <g
     id="g8"
     inkscape:groupmode="layer"
     inkscape:label="ink_ext_XXXXXX"
     transform="matrix(1.3333333,0,0,-1.3333333,0,666.66667)">
    <g
       id="g10"
       transform="scale(0.1)">
      <path
         d="M 0,0 H 5000 V 5000 H 0 Z"
         style="fill:#ffffff;fill-opacity:1;fill-rule:nonzero;stroke:none"
         id="path12" />
      <path
         d="m 895.723,2141.61 c -2.559,3.46 -5.059,6.94 -7.641,10.38 -29.062,38.62 -59.898,75.89 -92.437,111.59 0.808,71.94 -0.907,344 -73.805,329.99 -67.313,-12.93 20.547,-228.33 58.031,-313.23 -14.203,15.12 -28.68,29.96 -43.504,44.47 -49.183,63.83 -214.535,269.43 -263.008,213.76 -44.902,-51.56 151.625,-165.36 237.993,-211.81 16.046,-15.31 31.796,-30.9 47.113,-46.92 -83.238,41.58 -290.77,137.64 -309.219,72 -20.004,-71.19 251.356,-86.24 325.09,-89.01 38.293,-41.32 74.258,-84.76 107.867,-130.03 -74.551,47.23 -280.894,170.52 -306.285,105.42 -27.203,-69.74 248.594,-111.45 317.613,-120.75 36.274,-50.07 69.696,-102.24 100.34,-155.96 -71.273,60.4 -249.301,202.34 -282.762,143.08 -36.324,-64.32 223.098,-143.38 294.371,-163.7 4.94,-8.93 9.87,-17.85 14.65,-26.87 24.28,-45.71 46.72,-92.54 67.35,-140.16 -64.6,63.31 -237.082,223.24 -275.203,165.56 -40.914,-61.9 214.873,-159.52 283.173,-184.24 30.55,-72.59 56.57,-147.09 77.69,-222.83 -55.18,71.86 -203.3,254.04 -249.097,202.32 -49.191,-55.55 190.427,-188.11 254.607,-222.17 0.85,-3.19 1.82,-6.37 2.65,-9.56 6.77,-25.97 13.36,-52.17 17.96,-78.63 1.77,-10.13 17.55,-7.7 15.78,2.45 -4.58,26.3 -10.47,52.48 -17.18,78.5 32.74,65.84 148.22,309.17 76.86,328.24 -64.94,17.34 -80.38,-205.56 -84.02,-301.65 -12.18,43.32 -26.44,86.12 -41.36,128.05 -10.69,30.03 -22.15,59.81 -34.26,89.34 22.52,67.59 104.4,328.28 30.56,337.21 -67.42,8.15 -50.44,-219.25 -40.61,-313.25 -23.61,55.46 -49.79,109.86 -78.57,162.83 17.74,68.98 81.21,334.79 6.91,338.53 -68.542,3.46 -34.268,-227.14 -18.08,-318.28 -31.368,56.03 -65.681,110.41 -103.005,162.63 8.117,75 31.664,339.97 -41.441,333.23 -66.535,-6.12 -5.121,-218.19 24.879,-310.53"
         style="fill:#eb725f;fill-opacity:1;fill-rule:nonzero;stroke:none"
         id="path14" />
      <path
         d="m 4344.3,2579.87 c 1.8,3.9 3.68,7.77 5.46,11.67 20.03,43.99 38.04,88.88 53.86,134.52 63.59,33.67 301.75,165.17 254.62,222.51 -43.51,52.95 -190.76,-127.15 -247.43,-200.64 6.49,19.7 12.62,39.51 18.27,59.46 32.58,73.71 134.19,317.2 62.13,333.19 -66.76,14.81 -72.82,-212.22 -72.36,-310.28 -5.78,-21.41 -11.96,-42.7 -18.7,-63.81 -3.27,92.99 -18.02,321.2 -84.51,306.04 -72.09,-16.44 44.34,-262.01 77.13,-328.11 -17.98,-53.38 -38.98,-105.73 -62.67,-156.88 5.86,88.06 15.57,328.23 -53.74,319.43 -74.26,-9.43 20.87,-271.64 45.67,-336.71 -26.64,-55.79 -56.5,-110.06 -89.05,-162.66 19,91.47 58.62,315.68 -9.42,316.76 -73.85,1.18 -19.35,-264.49 -3.16,-336.81 -5.49,-8.6 -10.97,-17.2 -16.59,-25.7 -28.57,-43.19 -58.98,-85.26 -90.96,-126.14 24.75,86.99 82.83,314.93 13.96,320.86 -73.94,6.37 -37.47,-264.98 -26.56,-336.79 -49.17,-61.52 -102.18,-119.98 -158.62,-174.71 36.75,82.8 126.03,299.97 58.7,315.49 -72.29,16.68 -74.26,-257.16 -73.51,-329.82 -2.41,-2.27 -4.73,-4.64 -7.14,-6.89 -19.57,-18.36 -39.45,-36.66 -60.49,-53.35 -8.05,-6.39 1.63,-19.09 9.7,-12.69 20.91,16.58 41.09,34.28 60.75,52.6 73.48,2.7 342.41,17.51 325.07,89.31 -15.79,65.34 -218.99,-27.6 -305.14,-70.32 32.24,31.39 63.02,64.38 92.72,97.52 21.27,23.73 41.97,48.03 62.11,72.79 70.14,12.5 338.28,65.12 310.83,134.26 -25.04,63.12 -216.7,-60.44 -294.57,-113.99 37.44,47.24 72.72,96.23 105.49,146.82 69.07,17.37 332.91,88.62 300.71,155.67 -29.72,61.87 -215.92,-78.42 -288.25,-136.19 34.24,54.33 65.61,110.46 93.65,168.19 69.76,28.71 313.78,134.62 272.94,195.63 -37.17,55.52 -194.13,-99.75 -260.9,-170.23"
         style="fill:#eb725f;fill-opacity:1;fill-rule:nonzero;stroke:none"
         id="path16" />
      <path
         d="m 1426.09,2371.23 c 0,0 26.24,55.8 39.63,129.46 -2.24,23.1 -5.44,45.54 -9.68,67.27 -3.62,18.99 -8.14,37.38 -13.09,55.47 -13.24,-22.66 -29.85,-46.3 -48.42,-61.6 0,0 20.8,44.18 34.82,105.8 -14.39,41.68 -32.32,80.92 -53.36,118.02 -6.79,-22.35 -15.82,-45.04 -27.74,-62.08 0,0 7.36,40.28 7.41,95.76 -4.03,6.32 -8,12.7 -12.23,18.9 -23.45,34.19 -49.89,66.34 -79.31,96.43 -2.4,-25.34 -7.17,-52.2 -16.39,-73.04 0,0 -0.08,42.61 -10.44,99.02 -29.79,27.36 -62.54,52.69 -98.71,75.66 1.04,-24.44 0.06,-50.18 -5.6,-71.19 0,0 -5.6,37.74 -21.51,87.83 -32.29,18.67 -67.34,35.45 -105.41,50.15 4.34,-20.24 7.11,-41.01 6.12,-59.25 0,0 -10.46,29.07 -30.93,68.38 -27.527,9.56 -56.914,17.84 -88.262,24.77 -31.894,7.04 -65.578,12.86 -104.898,14.8 -12.266,-37.41 -18.895,-70.94 -23.735,-103.24 -4.761,-31.75 -7.554,-62.15 -8.488,-91.27 29.371,-33.2 52.778,-53.37 52.778,-53.37 -17.379,5.6 -35.786,15.63 -53.129,26.92 0.093,-40.8 3.203,-79.54 9.078,-116.37 41.066,-32.8 74.297,-51.54 74.297,-51.54 -21.633,2.24 -46.024,10.55 -68.477,20.26 8.504,-41.99 20.43,-81.64 35.301,-119.25 48.965,-29.87 88.723,-45.21 88.723,-45.21 -22.762,-1.13 -49.555,4.02 -74.071,10.86 17.559,-38.25 38.113,-74.44 61.641,-108.58 4.277,-6.17 8.805,-12.16 13.254,-18.2 51.832,-19.81 92.074,-27.36 92.074,-27.36 -20.172,-5.03 -44.602,-5.33 -67.902,-3.67 27.109,-32.93 57.332,-63.72 91.096,-92.09 62.56,-8.97 111.25,-5.36 111.25,-5.36 -20.94,-11.86 -48.95,-18.91 -74.86,-23.16 15.12,-11.1 30.67,-21.9 47.11,-32.08 18.77,-11.75 38.57,-22.77 59.34,-33.13 73.57,-13.87 135.07,-9.36 135.07,-9.36 -18.3,-10.36 -42.02,-17.04 -65,-21.41 6.54,-2.5 13.15,-4.95 19.87,-7.32 27.91,-9.78 57.67,-18.3 89.5,-25.39 31.82,-7.1 65.38,-13 104.54,-15.05 12.11,37.3 18.62,70.75 23.38,103 4.78,32.26 7.49,63.1 8.35,92.66 0.18,7.11 0.27,14.17 0.28,21.17 -12.31,-19.89 -27.04,-39.65 -43.27,-53.02"
         style="fill:#6e7fdd;fill-opacity:1;fill-rule:nonzero;stroke:none"
         id="path18" />
      <g
         id="g20">
        <g
           id="g22"
           clip-path="url(#clipPath26)">
          <path
             d="m 1327.32,2918.94 -10.23,1.17 c -0.08,-1.79 -8.75,-179.08 -126.88,-344.39 l -88.73,129.06 c 121.62,169.15 106.44,386.51 106.27,388.7 l -10.21,-0.11 c 0.16,-2.14 14.87,-213.37 -102.52,-379.2 l -78.94,114.82 c 121.14,170.4 6.57,410.7 5.39,413.11 l -9.1,-4.17 c 1.14,-2.35 111.56,-234.26 -2.77,-399.5 l -84.639,123.1 c 44.508,169.23 -70.965,382.61 -72.148,384.75 l -8.848,-4.68 c 1.133,-2.07 110.769,-204.83 73.062,-368.52 l -174.351,253.6 -8.242,-5.66 174.355,-253.61 c -166.348,23.41 -316.402,198.38 -317.93,200.18 l -7.535,-6.58 c 1.582,-1.87 159.461,-186.1 333.395,-205.14 l 84.641,-123.11 c -195.223,-47.58 -372.215,138.57 -374.008,140.48 l -7.153,-7.01 c 1.836,-1.97 185.176,-194.99 387.651,-142.9 l 78.93,-114.82 c -196.741,-50.19 -388.815,39.15 -390.76,40.06 l -3.758,-9.49 c 1.98,-0.95 199.496,-92.95 400.978,-39.97 l 88.73,-129.05 c -196.505,-51.06 -365.286,4.29 -366.986,4.86 l -2.574,-9.99 c 1.735,-0.57 175.121,-57.56 376.01,-4.25 l 66.75,-97.09 C 1058.75,2411.65 913.141,2433 911.68,2433.22 l -0.84,-10.4 c 1.488,-0.23 150.61,-22.19 350.76,31.41 l 72.8,-105.89 c -164.57,-43.3 -286.5,-25.55 -287.73,-25.35 l -0.84,-10.4 c 1.26,-0.21 126.68,-18.61 295.02,26.37 l 60.65,-88.23 c -103.33,-27.53 -179.28,-17.42 -180.05,-17.31 l -0.72,-10.42 c 3.25,-0.46 80.21,-10.8 187.21,18.38 l 118.2,-171.94 8.24,5.67 -118.2,171.93 c 65.56,89.45 83.45,165.01 84.19,168.21 l -9.98,3.07 c -0.18,-0.76 -17.93,-75.29 -80.64,-161.92 l -60.66,88.23 c 102.27,141.06 130.01,264.75 130.27,266 l -10.02,2.95 c -0.26,-1.22 -27.34,-121.42 -126.7,-259.57 l -72.8,105.88 c 121.72,167.7 154.61,314.79 154.93,316.26 l -10.01,2.94 c -0.32,-1.44 -32.53,-145.05 -151.35,-309.83 l -66.75,97.09 c 121.7,168.47 130.59,350.76 130.66,352.59"
             style="fill:#b3c9f9;fill-opacity:1;fill-rule:nonzero;stroke:none"
             id="path28" />
        </g>
      </g>
      <path
         d="m 1287.11,2503.51 c -13.08,0.38 -26.58,0.58 -40.4,0.58 -2.42,0 -4.84,0 -7.24,-0.02 l -42.81,62.28 c 43.97,60.86 73.21,123.54 92.64,178.85 v -238.38 c -0.73,-1.1 -1.46,-2.21 -2.19,-3.31 m -96.9,72.21 -88.73,129.06 c 68.5,95.27 93.6,205.83 102.44,284.63 11.52,-9.32 22.64,-18.91 33.37,-28.77 10.32,-56.19 10.44,-98.69 10.44,-99.02 v 0 0 c 9.22,20.84 13.99,47.7 16.39,73.04 8.65,-8.84 17.04,-17.87 25.18,-27.07 v -128.86 c -18.4,-60.22 -48.84,-132.69 -99.09,-203.01 m -95.19,138.45 -78.94,114.82 c 55.15,77.58 61.45,169.63 51.83,247.14 15.05,-7.36 29.56,-15.1 43.56,-23.19 15.91,-50.09 21.51,-87.83 21.51,-87.83 4.4,16.33 5.97,35.52 5.97,54.74 0,5.51 -0.14,11.01 -0.37,16.45 19.58,-12.43 38.16,-25.56 55.8,-39.32 -8.01,-77 -31.83,-187.42 -99.36,-282.81 m -85.42,124.26 -84.639,123.1 c 14.187,53.95 12.117,112.4 2.676,167.04 18.605,-4.94 36.468,-10.39 53.613,-16.35 20.47,-39.31 30.93,-68.38 30.93,-68.38 0.13,2.5 0.2,5.04 0.2,7.62 0,16.28 -2.58,34.15 -6.32,51.63 17.63,-6.81 34.61,-14.06 50.97,-21.74 10.25,-75.67 5.49,-166.44 -47.43,-242.92 m -92.573,134.65 -122.629,178.36 c 36.641,-2.22 68.415,-7.79 98.59,-14.45 8.102,-1.79 16.071,-3.67 23.91,-5.64 9.286,-51.67 11.965,-106.89 0.129,-158.27"
         style="fill:#6379d7;fill-opacity:1;fill-rule:nonzero;stroke:none"
         id="path30" />
      <path
         d="m 1289.3,2503.44 c -0.73,0.03 -1.46,0.05 -2.19,0.07 0.73,1.1 1.46,2.21 2.19,3.31 v -3.38 m -55.87,0.59 -445.34,647.76 c 2.121,-0.1 4.223,-0.22 6.308,-0.35 l 122.629,-178.36 c 11.836,51.38 9.157,106.6 -0.129,158.27 3.606,-0.91 7.184,-1.83 10.739,-2.78 9.441,-54.64 11.511,-113.09 -2.676,-167.04 l 84.639,-123.1 c 52.92,76.48 57.68,167.25 47.43,242.92 3.66,-1.72 7.29,-3.46 10.88,-5.22 9.62,-77.51 3.32,-169.56 -51.83,-247.14 l 78.94,-114.82 c 67.53,95.39 91.35,205.81 99.36,282.81 3.21,-2.51 6.39,-5.03 9.54,-7.57 -8.84,-78.8 -33.94,-189.36 -102.44,-284.63 l 88.73,-129.06 c 50.25,70.32 80.69,142.79 99.09,203.01 v -33.53 c -19.43,-55.31 -48.67,-117.99 -92.64,-178.85 l 42.81,-62.28 c -2.02,-0.01 -4.03,-0.02 -6.04,-0.04"
         style="fill:#a1bcf0;fill-opacity:1;fill-rule:nonzero;stroke:none"
         id="path32" />
      <path
         d="m 4145.56,1498.1 c 0,0 61.53,-3.97 134.97,10.55 20.67,10.55 40.38,21.76 59.04,33.66 16.36,10.34 31.81,21.27 46.83,32.5 -25.95,4.02 -54.03,10.82 -75.07,22.49 0,0 48.73,-3.17 111.21,6.36 33.5,28.66 63.45,59.72 90.26,92.89 -23.28,-1.87 -47.71,-1.77 -67.93,3.07 0,0 40.17,7.91 91.83,28.18 4.39,6.08 8.87,12.11 13.1,18.3 23.21,34.37 43.44,70.74 60.66,109.14 -24.45,-7.06 -51.19,-12.46 -73.97,-11.51 0,0 39.62,15.69 88.31,45.99 14.55,37.75 26.12,77.5 34.24,119.57 -22.36,-9.93 -46.68,-18.45 -68.29,-20.87 0,0 33.07,19.03 73.83,52.19 5.56,36.89 8.32,75.64 8.05,116.45 -17.25,-11.45 -35.56,-21.64 -52.88,-27.4 0,0 23.22,20.39 52.29,53.84 -1.19,29.11 -4.26,59.49 -9.3,91.2 -5.12,32.25 -12.06,65.72 -24.65,103.01 -39.3,-2.28 -72.93,-8.4 -104.76,-15.73 -31.29,-7.2 -60.61,-15.75 -88.05,-25.54 -20.11,-39.5 -30.31,-68.67 -30.31,-68.67 -1.16,18.23 1.44,39.03 5.59,59.3 -37.94,-15.03 -72.84,-32.12 -104.96,-51.08 -15.46,-50.23 -20.73,-88.01 -20.73,-88.01 -5.85,20.95 -7.05,46.69 -6.24,71.13 -35.95,-23.29 -68.47,-48.92 -98.02,-76.53 -9.86,-56.51 -9.57,-99.12 -9.57,-99.12 -9.39,20.76 -14.41,47.58 -17.03,72.9 -29.16,-30.35 -55.3,-62.74 -78.45,-97.14 -4.17,-6.23 -8.08,-12.64 -12.06,-19.01 0.54,-55.47 8.27,-95.68 8.27,-95.68 -12.07,16.92 -21.31,39.54 -28.3,61.83 -20.71,-37.29 -38.29,-76.69 -52.31,-118.5 14.57,-61.49 35.76,-105.48 35.76,-105.48 -18.7,15.14 -35.52,38.63 -48.96,61.16 -4.79,-18.13 -9.14,-36.55 -12.59,-55.58 -4.05,-21.77 -7.06,-44.23 -9.09,-67.35 14.05,-73.53 40.78,-129.11 40.78,-129.11 -16.35,13.24 -31.25,32.86 -43.73,52.63 0.07,-6.99 0.21,-14.04 0.46,-21.16 1.12,-29.55 4.11,-60.36 9.17,-92.58 5.06,-32.21 11.86,-65.6 24.31,-102.78 39.13,2.4 72.64,8.59 104.39,15.97 31.77,7.38 61.46,16.16 89.28,26.19 6.69,2.44 13.28,4.94 19.79,7.5 -23.01,4.15 -46.78,10.63 -65.17,20.83"
         style="fill:#6e7fdd;fill-opacity:1;fill-rule:nonzero;stroke:none"
         id="path34" />
      <g
         id="g36">
        <g
           id="g38"
           clip-path="url(#clipPath42)">
          <path
             d="m 4618.99,1790.67 -2.66,9.96 c -1.7,-0.59 -169.83,-57.48 -366.93,-8.13 l 87.57,129.84 c 201.96,-51.19 398.64,42.57 400.62,43.54 l -3.85,9.46 c -1.93,-0.94 -193.09,-92.02 -390.39,-43.54 l 77.92,115.51 c 202.92,-50.29 384.53,144.36 386.36,146.35 l -7.22,6.94 c -1.78,-1.92 -177.11,-189.64 -372.74,-143.79 l 83.53,123.85 c 173.77,20.59 330,206.21 331.56,208.1 l -7.59,6.51 c -1.52,-1.81 -150,-178.11 -316.14,-203 l 172.09,255.14 -8.29,5.6 -172.09,-255.15 c -39.16,163.35 68.66,367.08 69.79,369.16 l -8.89,4.6 c -1.16,-2.15 -114.74,-216.55 -68.73,-385.37 l -83.54,-123.86 c -115.8,164.22 -7.44,397.1 -6.31,399.47 l -9.14,4.09 c -1.17,-2.43 -113.6,-243.74 9.06,-413.05 l -77.92,-115.52 c -118.78,164.68 -106.03,376.13 -105.89,378.27 l -10.21,0.02 c -0.15,-2.18 -13.39,-219.67 109.73,-387.74 l -87.58,-129.84 c -119.5,164.14 -129.84,341.46 -129.94,343.25 l -10.22,-1.26 c 0.09,-1.83 10.6,-184.04 133.8,-351.43 l -65.88,-97.67 c -120.3,163.73 -153.78,307.03 -154.11,308.47 l -9.98,-3.02 c 0.33,-1.48 34.54,-148.28 157.74,-314.87 l -71.86,-106.53 c -100.59,137.26 -128.74,257.22 -129.01,258.44 l -9.99,-3.04 c 0.27,-1.25 29.11,-124.69 132.64,-264.84 l -59.88,-88.76 c -63.47,86.06 -81.89,160.44 -82.08,161.19 l -9.95,-3.15 c 0.76,-3.2 19.34,-78.59 85.69,-167.46 l -116.67,-172.98 8.29,-5.59 116.67,172.99 c 107.25,-28.24 184.11,-17.2 187.36,-16.71 l -0.81,10.41 c -0.76,-0.12 -76.62,-10.9 -180.2,15.71 l 59.87,88.76 c 168.73,-43.48 293.98,-23.96 295.23,-23.75 l -0.93,10.4 c -1.23,-0.21 -122.98,-19.05 -287.94,22.78 l 71.86,106.54 c 200.62,-51.81 349.53,-28.53 351.03,-28.28 l -0.94,10.39 c -1.46,-0.24 -146.88,-22.89 -343.74,27.3 l 65.88,97.69 c 201.35,-51.52 374.23,7 375.95,7.6"
             style="fill:#b3c9f9;fill-opacity:1;fill-rule:nonzero;stroke:none"
             id="path44" />
        </g>
      </g>
      <path
         d="m 4204.13,1474.7 v 3.82 c 2.21,-0.44 4.41,-0.86 6.6,-1.25 -2.19,-0.87 -4.39,-1.72 -6.6,-2.57"
         style="fill:#6379d7;fill-opacity:1;fill-rule:nonzero;stroke:none"
         id="path46" />
      <path
         d="m 4204.13,1498.84 v 0 c 21.86,1.4 48.25,4.25 76.4,9.81 14.47,7.39 28.47,15.09 41.97,23.14 v 0 c 5.78,3.45 11.47,6.95 17.07,10.52 0.26,0.17 0.51,0.33 0.77,0.49 v 0 c 16.07,10.19 31.27,20.96 46.06,32.01 v 0 c -15.02,-11.23 -30.47,-22.16 -46.83,-32.5 -18.66,-11.9 -38.37,-23.11 -59.04,-33.66 -28.15,-5.56 -54.54,-8.41 -76.4,-9.81 m 128.33,97.96 c -13.34,0 -21.13,0.5 -21.13,0.5 v 0 c 0,0 7.79,-0.5 21.13,-0.5 20.03,0 52.57,1.14 90.08,6.86 14.77,12.64 28.85,25.74 42.27,39.28 v 0 c 3.6,3.63 7.15,7.29 10.66,10.99 v 0 c 13.08,13.78 25.51,27.99 37.33,42.62 v 0 c -26.81,-33.17 -56.76,-64.23 -90.26,-92.89 -37.51,-5.72 -70.05,-6.86 -90.08,-6.86 m 112.41,102.82 v 0 c 0,0 40.17,7.91 91.83,28.18 4.39,6.08 8.87,12.11 13.1,18.3 7.04,10.43 13.81,21.05 20.31,31.85 v 0 c 2.42,4.03 4.8,8.08 7.15,12.16 v 0 c 12.09,21.02 23.16,42.73 33.2,65.13 v 0 c -17.22,-38.4 -37.45,-74.77 -60.66,-109.14 -4.23,-6.19 -8.71,-12.22 -13.1,-18.3 -51.66,-20.27 -91.83,-28.18 -91.83,-28.18 m 91.62,144.11 v 0 c 0,0 39.62,15.69 88.31,45.99 5.24,13.6 10.1,27.46 14.54,41.59 v 0 c 1.22,3.86 2.4,7.75 3.55,11.65 v 0 c 6.35,21.46 11.75,43.55 16.15,66.33 v 0 c -8.12,-42.07 -19.69,-81.82 -34.24,-119.57 -48.69,-30.3 -88.31,-45.99 -88.31,-45.99 m 54.26,144.69 c 0,0 33.07,19.03 73.83,52.19 2.41,15.99 4.29,32.32 5.63,49.02 v 0 c 0.32,4 0.61,8.01 0.87,12.05 v 0 c 1.03,16.21 1.56,32.75 1.57,49.65 -0.02,-38.71 -2.77,-75.56 -8.07,-110.72 -40.76,-33.16 -73.83,-52.19 -73.83,-52.19 v 0"
         style="fill:#e5ecf5;fill-opacity:1;fill-rule:nonzero;stroke:none"
         id="path48" />
      <path
         d="m 4204.13,1498.84 v 39.77 c 41.43,-5.27 77.66,-6.91 106.75,-6.91 4.01,0 7.88,0.03 11.62,0.09 -13.5,-8.05 -27.5,-15.75 -41.97,-23.14 -28.15,-5.56 -54.54,-8.41 -76.4,-9.81 m 107.58,43.4 c -29.16,0 -65.69,1.68 -107.58,7.1 v 118.58 c 91.22,-20.48 169.89,-25.66 226.12,-25.66 12.7,0 24.26,0.26 34.56,0.68 -13.42,-13.54 -27.5,-26.64 -42.27,-39.28 -37.51,-5.72 -70.05,-6.86 -90.08,-6.86 -13.34,0 -21.13,0.5 -21.13,0.5 v 0 0 c 21.04,-11.67 49.12,-18.47 75.07,-22.49 -14.79,-11.05 -29.99,-21.82 -46.06,-32.01 -8.52,-0.34 -18.09,-0.56 -28.63,-0.56 m 119.3,110.54 c -56.16,0 -135.15,5.23 -226.88,26.1 v 46.5 l 38.91,57.69 c 61.43,-15.72 120.24,-21.2 172.32,-21.2 64.39,0 118.51,8.36 154.75,16.08 -6.5,-10.8 -13.27,-21.42 -20.31,-31.85 -4.23,-6.19 -8.71,-12.22 -13.1,-18.3 -51.66,-20.27 -91.83,-28.18 -91.83,-28.18 v 0 0 c 12.62,-3.02 26.88,-4.2 41.48,-4.2 8.79,0 17.7,0.43 26.45,1.13 -11.82,-14.63 -24.25,-28.84 -37.33,-42.62 -12.54,-0.67 -27.45,-1.15 -44.46,-1.15 m -14.72,119.6 c -50.46,0 -107.35,5.21 -166.89,20.12 l 87.57,129.84 c 43.26,-10.96 86.29,-15.28 127.2,-15.28 66.66,0 127.73,11.45 175.17,24.25 -4.44,-14.13 -9.3,-27.99 -14.54,-41.59 -48.69,-30.3 -88.31,-45.99 -88.31,-45.99 v 0 0 c 1.75,-0.07 3.53,-0.11 5.32,-0.11 21.55,0 46.07,5.11 68.65,11.62 -10.04,-22.4 -21.11,-44.11 -33.2,-65.13 -35.28,-8.03 -92.15,-17.73 -160.97,-17.73 m 48.83,145.21 c -39.19,0 -80.34,4.03 -121.77,14.21 l 77.92,115.51 c 23.2,-5.75 46.13,-8.29 68.53,-8.29 66.82,0 129.04,22.64 180.41,50.61 -1.34,-16.7 -3.22,-33.03 -5.63,-49.02 -40.76,-33.16 -73.83,-52.19 -73.83,-52.19 v 0 0 c 21.61,2.42 45.93,10.94 68.29,20.87 -4.4,-22.78 -9.8,-44.87 -16.15,-66.33 -47.36,-13.18 -109.59,-25.37 -177.77,-25.37 m 25.47,132.01 c -20.62,-0.01 -41.63,2.22 -62.92,7.21 l 83.53,123.85 c 55.4,6.57 109.02,29.91 156.41,58.72 2.22,-19.13 3.69,-37.76 4.43,-55.88 -29.07,-33.45 -52.29,-53.84 -52.29,-53.84 v 0 0 c 17.32,5.76 35.63,15.95 52.88,27.4 0.01,-1.91 0.02,-3.82 0.02,-5.73 -0.01,-16.9 -0.54,-33.44 -1.57,-49.65 -50.99,-28.51 -113.43,-52.08 -180.49,-52.08 m 28.44,142.67 121.04,179.45 c 11.36,-34.9 17.82,-66.5 22.67,-97.02 1.31,-8.2 2.48,-16.3 3.52,-24.32 -44.67,-27.57 -95.08,-50.3 -147.23,-58.11"
         style="fill:#6379d7;fill-opacity:1;fill-rule:nonzero;stroke:none"
         id="path50" />
      <path
         d="m 4310.88,1531.7 c -29.09,0 -65.32,1.64 -106.75,6.91 v 10.73 c 41.89,-5.42 78.42,-7.1 107.58,-7.1 10.54,0 20.11,0.22 28.63,0.56 v 0 c -0.26,-0.16 -0.51,-0.32 -0.77,-0.49 -5.6,-3.57 -11.29,-7.07 -17.07,-10.52 v 0 c -3.74,-0.06 -7.61,-0.09 -11.62,-0.09 m 119.37,110.56 c -56.23,0 -134.9,5.18 -226.12,25.66 v 10.96 c 91.73,-20.87 170.72,-26.1 226.88,-26.1 17.01,0 31.92,0.48 44.46,1.15 v 0 c -3.51,-3.7 -7.06,-7.36 -10.66,-10.99 v 0 c -10.3,-0.42 -21.86,-0.68 -34.56,-0.68 m -226.12,83.12 v 8.93 l 433.96,643.4 c 0.67,-2 1.34,-4 1.98,-5.99 l -121.04,-179.45 c 52.15,7.81 102.56,30.54 147.23,58.11 0.48,-3.69 0.93,-7.35 1.35,-11 -47.39,-28.81 -101.01,-52.15 -156.41,-58.72 l -83.53,-123.85 c 21.29,-4.99 42.3,-7.22 62.92,-7.21 67.06,0 129.5,23.57 180.49,52.08 v 0 c -0.26,-4.04 -0.55,-8.05 -0.87,-12.05 v 0 c -51.37,-27.97 -113.59,-50.61 -180.41,-50.61 -22.4,0 -45.33,2.54 -68.53,8.29 l -77.92,-115.51 c 41.43,-10.18 82.58,-14.21 121.77,-14.21 68.18,0 130.41,12.19 177.77,25.37 v 0 c -1.15,-3.9 -2.33,-7.79 -3.55,-11.65 v 0 c -47.44,-12.8 -108.51,-24.25 -175.17,-24.25 -40.91,0 -83.94,4.32 -127.2,15.28 L 4249.4,1792.5 c 59.54,-14.91 116.43,-20.12 166.89,-20.12 68.82,0 125.69,9.7 160.97,17.73 v 0 c -2.35,-4.08 -4.73,-8.13 -7.15,-12.16 v 0 c -36.24,-7.72 -90.36,-16.08 -154.75,-16.08 -52.08,0 -110.89,5.48 -172.32,21.2 l -38.91,-57.69"
         style="fill:#a1bcf0;fill-opacity:1;fill-rule:nonzero;stroke:none"
         id="path52" />
      <path
         d="m 4797.09,833.879 c 0,-94.238 -1028.45,-170.637 -2297.09,-170.637 -1268.65,0 -2297.086,76.399 -2297.086,170.637 0,94.242 1028.436,170.641 2297.086,170.641 1268.64,0 2297.09,-76.399 2297.09,-170.641"
         style="fill:#edf0fc;fill-opacity:1;fill-rule:nonzero;stroke:none"
         id="path54" />
      <path
         d="M 1289.3,924.27 H 4204.13 V 3539.1 H 1289.3 Z"
         style="fill:#f5f9ff;fill-opacity:1;fill-rule:nonzero;stroke:none"
         id="path56" />
      <path
         d="M 4204.13,3229.88 H 1289.3 v 309.22 h 2914.83 v -309.22"
         style="fill:#d0dbf7;fill-opacity:1;fill-rule:nonzero;stroke:none"
         id="path58" />
      <path
         d="m 1524.47,3384.49 c 0,-32.8 -26.59,-59.39 -59.4,-59.39 -32.8,0 -59.39,26.59 -59.39,59.39 0,32.8 26.59,59.4 59.39,59.4 32.81,0 59.4,-26.6 59.4,-59.4"
         style="fill:#eb725f;fill-opacity:1;fill-rule:nonzero;stroke:none"
         id="path60" />
      <path
         d="m 1724.47,3384.49 c 0,-32.8 -26.59,-59.39 -59.4,-59.39 -32.8,0 -59.39,26.59 -59.39,59.39 0,32.8 26.59,59.4 59.39,59.4 32.81,0 59.4,-26.6 59.4,-59.4"
         style="fill:#f9ab43;fill-opacity:1;fill-rule:nonzero;stroke:none"
         id="path62" />
      <path
         d="m 1924.47,3384.49 c 0,-32.8 -26.59,-59.39 -59.4,-59.39 -32.8,0 -59.39,26.59 -59.39,59.39 0,32.8 26.59,59.4 59.39,59.4 32.81,0 59.4,-26.6 59.4,-59.4"
         style="fill:#6e7fdd;fill-opacity:1;fill-rule:nonzero;stroke:none"
         id="path64" />
      <path
         d="m 3777.01,2337.14 c 13.97,35.42 -5.75,64.4 -43.83,64.4 h -1403 c -38.07,0 -80.64,-28.98 -94.61,-64.4 l -310.99,-788.66 c -13.97,-35.42 5.75,-64.4 43.82,-64.4 h 1403.01 c 38.06,0 80.64,28.98 94.61,64.4 l 310.99,788.66"
         style="fill:#ffcf74;fill-opacity:1;fill-rule:nonzero;stroke:none"
         id="path66" />
      <path
         d="m 1857.32,1615.73 310.99,788.67 c 13.97,35.41 56.54,64.4 94.61,64.4 H 3364.3 v 69.88 c 0,38.08 -31.15,69.22 -69.22,69.22 h -491.3 c -38.08,0 -84.08,27.38 -102.25,60.84 l -66.89,123.23 c -18.17,33.46 -64.18,60.83 -102.25,60.83 h -631.24 c -38.07,0 -69.23,-31.15 -69.23,-69.22 V 1620.56 c 0,-33.44 24.04,-61.52 55.67,-67.87 -28.97,6.1 -42.47,32.11 -30.27,63.04"
         style="fill:#ffcf74;fill-opacity:1;fill-rule:nonzero;stroke:none"
         id="path68" />
      <path
         d="m 3004.68,1831.42 -37.7,-37.69 -90.29,90.29 -90.3,-90.29 -37.69,37.69 90.29,90.29 -90.29,90.29 37.69,37.7 90.3,-90.3 90.29,90.3 37.7,-37.7 -90.3,-90.29 z m -127.99,351.87 c -144.46,0 -261.58,-117.12 -261.58,-261.58 0,-144.46 117.12,-261.57 261.58,-261.57 144.46,0 261.57,117.11 261.57,261.57 0,144.46 -117.11,261.58 -261.57,261.58"
         style="fill:#eb725f;fill-opacity:1;fill-rule:nonzero;stroke:none"
         id="path70" />
      <path
         d="m 2005.23,914.84 c 0,-68.449 -308.76,-123.942 -758.52,-123.942 -449.753,0 -758.511,55.493 -758.511,123.942 0,68.449 308.758,123.94 758.511,123.94 449.76,0 758.52,-55.491 758.52,-123.94"
         style="fill:#eb725f;fill-opacity:1;fill-rule:nonzero;stroke:none"
         id="path72" />
      <path
         d="M 1459.93,2471.64 H 1033.5 L 706.117,941.98 c 271.543,-58.519 540.593,-58.519 540.593,-58.519 0,0 269.06,0 540.6,58.519 l -327.38,1529.66"
         style="fill:#ffcf74;fill-opacity:1;fill-rule:nonzero;stroke:none"
         id="path74" />
      <path
         d="m 1459.93,2471.64 c 0,-17.92 -95.46,-32.45 -213.22,-32.45 -117.75,0 -213.21,14.53 -213.21,32.45 0,17.92 95.46,32.45 213.21,32.45 117.76,0 213.22,-14.53 213.22,-32.45"
         style="fill:#eb725f;fill-opacity:1;fill-rule:nonzero;stroke:none"
         id="path76" />
      <g
         id="g78">
        <g
           id="g80"
           clip-path="url(#clipPath84)">
          <path
             d="m 1237.43,1009.25 c -438.899,0 -735.289,73.35 -753.7,78.03 l 61.055,240.46 -30.527,-120.23 30.394,120.26 c 6.293,-1.58 638.888,-156.61 1410.858,1.27 l 49.72,-243.07 c -281.11,-57.49 -543.15,-76.72 -767.8,-76.72"
             style="fill:#f9ab43;fill-opacity:1;fill-rule:nonzero;stroke:none"
             id="path86" />
          <path
             d="m 1237.43,1549.03 c -438.899,0 -735.289,73.36 -753.7,78.03 l 61.055,240.47 -30.527,-120.24 30.394,120.28 c 6.293,-1.58 638.888,-156.61 1410.858,1.27 l 49.72,-243.08 c -281.11,-57.5 -543.15,-76.73 -767.8,-76.73"
             style="fill:#f9ab43;fill-opacity:1;fill-rule:nonzero;stroke:none"
             id="path88" />
          <path
             d="m 1237.43,2088.82 c -438.899,0 -735.289,73.36 -753.7,78.04 l 61.055,240.46 -30.527,-120.23 30.394,120.26 c 6.293,-1.58 638.888,-156.61 1410.858,1.27 l 49.72,-243.07 c -281.11,-57.49 -543.15,-76.73 -767.8,-76.73"
             style="fill:#f9ab43;fill-opacity:1;fill-rule:nonzero;stroke:none"
             id="path90" />
        </g>
      </g>
      <path
         d="m 1719.64,928.539 h 0.01 -0.01 m 0.48,0.09 c 0.01,0 0.06,0.012 0.07,0.012 -0.02,-0.012 -0.05,-0.012 -0.07,-0.012 m 0.99,0.18 c 0.06,0.011 0.13,0.023 0.2,0.031 -0.07,-0.008 -0.14,-0.02 -0.2,-0.031 m 0.58,0.101 c 0.01,0.012 0.01,0 0.02,0.012 l -0.02,-0.012 m 1.54,0.289 h 0.03 -0.03 m 1.54,0.281 c 0.02,0 0.03,0.008 0.05,0.008 -0.03,0 -0.03,-0.008 -0.05,-0.008 m 0.43,0.079 c 0.05,0.011 0.1,0.023 0.15,0.031 -0.05,-0.008 -0.09,-0.02 -0.15,-0.031 m 1.11,0.211 c 0.02,0 0.03,0 0.05,0.011 -0.02,-0.011 -0.03,-0.011 -0.05,-0.011 m 2.04,0.378 c 0.03,0 0.04,0 0.07,0.012 -0.02,0 -0.05,-0.012 -0.07,-0.012 m 0.53,0.102 c 0.02,0 0.02,0 0.03,0 -0.01,0 -0.02,0 -0.03,0 m 0.52,0.09 c 0.02,0 0.06,0.012 0.08,0.019 -0.04,-0.007 -0.05,-0.007 -0.08,-0.019 m 1.01,0.191 c 0.02,0.008 0.04,0.008 0.06,0.008 -0.02,0 -0.03,0 -0.06,-0.008 m 1.03,0.199 c 0.04,0 0.05,0 0.08,0.008 -0.02,0 -0.05,-0.008 -0.08,-0.008 m 1.57,0.29 0.03,0.011 c -0.01,-0.011 -0.02,-0.011 -0.03,-0.011 m 0.47,0.089 c 0.05,0.012 0.08,0.012 0.13,0.02 -0.05,0 -0.09,-0.008 -0.13,-0.02 m 0.56,0.11 h 0.02 -0.02 m 1.52,0.281 c 0.02,0.012 0.04,0.012 0.06,0.012 -0.02,0 -0.04,0 -0.06,-0.012 m 1.55,0.301 c 0.03,0 0.03,0 0.06,0.008 -0.02,0 -0.04,-0.008 -0.06,-0.008 m 0.47,0.09 c 0.04,0 0.07,0.007 0.1,0.019 -0.03,-0.012 -0.06,-0.019 -0.1,-0.019 m 1.1,0.211 c 0.02,0 0,0 0.02,0 h -0.02 m 3.07,0.589 c 0.03,0 0.04,0.008 0.08,0.008 -0.02,0 -0.06,-0.008 -0.08,-0.008 m 3.62,0.7 c 0.03,0.007 0.04,0.007 0.07,0.007 -0.02,0 -0.05,-0.007 -0.07,-0.007 m 0.48,0.089 c 0.03,0.008 0.06,0.008 0.09,0.02 -0.03,-0.012 -0.06,-0.012 -0.09,-0.02 m 0.56,0.11 c 0.03,0.012 0.07,0.012 0.1,0.019 -0.03,0 -0.07,-0.007 -0.1,-0.019 m 0.48,0.101 c 0.05,0.008 0.1,0.008 0.15,0.02 -0.06,-0.012 -0.09,-0.012 -0.15,-0.02 m 0.55,0.098 c 0.01,0.012 0.02,0.012 0.04,0.012 -0.02,0 -0.03,-0.012 -0.04,-0.012 m 0.53,0.109 h 0.03 c -0.01,0 -0.02,0 -0.03,0 m 2.06,0.403 c 0.03,0.008 0.04,0.008 0.08,0.019 -0.04,-0.011 -0.05,-0.011 -0.08,-0.019 m 0.52,0.097 c 0.01,0.012 0.01,0.012 0.03,0.012 -0.01,0 -0.02,-0.012 -0.03,-0.012 m 0.48,0.102 c 0.02,0 0.06,0.012 0.07,0.012 -0.02,0 -0.04,-0.012 -0.07,-0.012 m 0.57,0.109 v 0 0 m 0.45,0.09 c 0.05,0.012 0.07,0.012 0.12,0.02 -0.04,0 -0.07,-0.008 -0.12,-0.02 m 0.53,0.102 c 0.03,0.008 0.05,0.019 0.09,0.019 -0.04,0 -0.06,-0.011 -0.09,-0.019 m 0.55,0.109 c 0.05,0.012 0.11,0.02 0.16,0.031 -0.05,0 -0.11,-0.019 -0.16,-0.031 m 0.44,0.09 c 0.08,0.02 0.16,0.031 0.24,0.051 -0.08,-0.02 -0.15,-0.031 -0.24,-0.051 m 0.45,0.09 c 0.1,0.019 0.19,0.039 0.29,0.058 -0.09,-0.019 -0.2,-0.039 -0.29,-0.058 m 0.4,0.082 c 0.1,0.019 0.2,0.039 0.3,0.058 -0.11,-0.019 -0.19,-0.039 -0.3,-0.058 m 0.72,0.137 c 0.07,0.019 0.11,0.019 0.18,0.043 -0.06,-0.012 -0.13,-0.032 -0.18,-0.043 m 0.56,0.121 c 0.02,0 0.05,0 0.07,0.011 -0.02,-0.011 -0.05,-0.011 -0.07,-0.011 m 0.47,0.09 c 0.04,0.011 0.07,0.011 0.1,0.019 -0.03,-0.008 -0.06,-0.008 -0.1,-0.019 m 0.56,0.109 c 0.04,0.012 0.09,0.019 0.13,0.031 -0.05,-0.012 -0.08,-0.019 -0.13,-0.031 m 0.48,0.101 c 0.07,0.008 0.11,0.02 0.17,0.032 -0.05,-0.012 -0.11,-0.024 -0.17,-0.032 m 0.48,0.09 c 0.05,0.012 0.11,0.02 0.16,0.032 -0.05,0 -0.12,-0.02 -0.16,-0.032 m 0.57,0.121 c 0.05,0.008 0.08,0.008 0.13,0.02 -0.04,-0.012 -0.09,-0.012 -0.13,-0.02 m 1.05,0.207 c 0.03,0.012 0.03,0 0.07,0.012 -0.03,0 -0.05,-0.012 -0.07,-0.012 m 1.05,0.211 c 0.02,0 0.07,0.012 0.08,0.02 -0.03,-0.008 -0.05,-0.008 -0.08,-0.02 m 0.53,0.11 c 0.02,0 0,0 0.02,0 h -0.02 m 1.5,0.301 c 0.06,0.011 0.08,0.019 0.15,0.031 -0.05,-0.012 -0.1,-0.02 -0.15,-0.031 m 0.54,0.109 c 0.03,0.012 0.03,0.012 0.06,0.012 -0.01,0 -0.05,-0.012 -0.06,-0.012 m 1.04,0.211 c 0.03,0.012 0.07,0.019 0.1,0.019 -0.03,0 -0.07,-0.007 -0.1,-0.019 m 0.47,0.101 c 0.03,0 0.1,0.02 0.13,0.02 -0.04,0 -0.09,-0.012 -0.13,-0.02 m 3.14,0.637 c 0.03,0.012 0.06,0.012 0.1,0.024 -0.04,-0.012 -0.07,-0.012 -0.1,-0.024 m 1.08,0.223 0.02,0.008 -0.02,-0.008 m 0.5,0.097 c 0.01,0.012 0.04,0.012 0.06,0.024 -0.02,-0.012 -0.04,-0.012 -0.06,-0.024 m 0.51,0.114 c 0.01,0 0.03,0.008 0.04,0.008 -0.01,0 -0.03,-0.008 -0.04,-0.008 m 0.97,0.199 c 0.08,0.019 0.16,0.027 0.24,0.051 -0.08,-0.024 -0.15,-0.032 -0.24,-0.051 m 0.56,0.121 c 0.01,0 0.06,0.008 0.08,0.008 -0.03,0 -0.05,-0.008 -0.08,-0.008 m 0.53,0.109 c 0.02,0 0.04,0 0.05,0.008 -0.01,0 -0.04,-0.008 -0.05,-0.008 m 0.55,0.11 h 0.02 -0.02 m 0.51,0.109 c 0.01,0 0.02,0 0.03,0 -0.01,0 -0.02,0 -0.03,0 m 2.08,0.43 h 0.01 -0.01 m 2.59,0.539 0.02,0.012 -0.02,-0.012 m 0.51,0.109 c 0.01,0 0.02,0.012 0.03,0.012 -0.02,-0.012 -0.01,0 -0.03,-0.012 m 0.48,0.102 c 0.02,0.012 0.06,0.012 0.07,0.019 -0.03,-0.007 -0.04,-0.007 -0.07,-0.019 m 0.53,0.121 c 0.04,0 0.1,0.019 0.14,0.019 -0.05,-0.011 -0.09,-0.019 -0.14,-0.019 m 0.52,0.098 c 0.04,0.011 0.05,0.011 0.08,0.019 -0.02,0 -0.06,-0.008 -0.08,-0.019 m 0.5,0.113 c 0.03,0.008 0.05,0.008 0.08,0.019 -0.03,-0.011 -0.05,-0.011 -0.08,-0.019 m 1.07,0.226 c 0.03,0 0.04,0.012 0.07,0.012 -0.03,0 -0.04,-0.012 -0.07,-0.012 m 0.5,0.102 c 0.01,0.012 0.05,0.012 0.06,0.02 -0.02,-0.008 -0.04,-0.008 -0.06,-0.02 m 1.05,0.23 c 0.02,0 0.07,0.008 0.09,0.02 -0.04,-0.012 -0.05,-0.02 -0.09,-0.02 m 0.44,0.09 c 0.05,0.012 0.13,0.032 0.18,0.039 -0.06,-0.007 -0.12,-0.027 -0.18,-0.039 m 1.63,0.352 c 0.04,0.008 0.03,0 0.06,0.008 -0.02,0 -0.03,-0.008 -0.06,-0.008 m 0.47,0.098 c 0.03,0.011 0.08,0.019 0.11,0.019 -0.03,0 -0.08,-0.008 -0.11,-0.019 m 1.05,0.222 c 0.05,0.02 0.11,0.028 0.16,0.039 -0.05,-0.011 -0.11,-0.019 -0.16,-0.039 m 0.46,0.098 c 0.06,0.019 0.13,0.031 0.19,0.051 -0.06,-0.02 -0.13,-0.032 -0.19,-0.051"
         style="fill:#d36e66;fill-opacity:1;fill-rule:nonzero;stroke:none"
         id="path92" />
      <path
         d="m 1333.64,885.949 c 20.29,39.321 39.17,81.512 56.48,126.261 117.75,4.57 243.5,14.77 375.13,32.84 l 22.06,-103.07 v 0 c -0.15,-0.031 -0.29,-0.058 -0.45,-0.089 -0.06,-0.02 -0.13,-0.032 -0.19,-0.051 -0.1,-0.02 -0.2,-0.039 -0.3,-0.059 -0.05,-0.011 -0.11,-0.019 -0.16,-0.039 -0.32,-0.062 -0.63,-0.133 -0.94,-0.203 -0.03,0 -0.08,-0.008 -0.11,-0.019 -0.14,-0.032 -0.27,-0.059 -0.41,-0.09 -0.03,-0.008 -0.02,0 -0.06,-0.008 -0.48,-0.102 -0.97,-0.211 -1.45,-0.313 -0.05,-0.007 -0.13,-0.027 -0.18,-0.039 -0.12,-0.019 -0.23,-0.05 -0.35,-0.07 -0.02,-0.012 -0.07,-0.02 -0.09,-0.02 -0.32,-0.07 -0.66,-0.14 -0.99,-0.21 -0.01,-0.008 -0.05,-0.008 -0.06,-0.02 -0.14,-0.031 -0.29,-0.059 -0.43,-0.09 -0.03,0 -0.04,-0.012 -0.07,-0.012 -0.33,-0.066 -0.66,-0.136 -0.99,-0.207 -0.03,-0.011 -0.05,-0.011 -0.08,-0.019 -0.14,-0.031 -0.28,-0.063 -0.42,-0.094 -0.03,-0.008 -0.04,-0.008 -0.08,-0.019 -0.13,-0.02 -0.26,-0.047 -0.38,-0.079 -0.04,0 -0.1,-0.019 -0.14,-0.019 -0.15,-0.039 -0.31,-0.07 -0.46,-0.102 -0.01,-0.007 -0.05,-0.007 -0.07,-0.019 -0.14,-0.031 -0.31,-0.059 -0.45,-0.09 -0.01,0 -0.02,-0.012 -0.03,-0.012 -0.16,-0.027 -0.33,-0.066 -0.49,-0.097 l -0.02,-0.012 c -0.86,-0.18 -1.72,-0.359 -2.58,-0.539 h -0.01 c -0.69,-0.141 -1.36,-0.281 -2.05,-0.43 -0.01,0 -0.02,0 -0.03,0 -0.16,-0.039 -0.33,-0.07 -0.49,-0.109 h -0.02 c -0.17,-0.031 -0.32,-0.071 -0.5,-0.102 -0.01,-0.008 -0.03,-0.008 -0.05,-0.008 -0.15,-0.031 -0.3,-0.07 -0.45,-0.101 -0.02,0 -0.07,-0.008 -0.08,-0.008 -0.1,-0.023 -0.22,-0.051 -0.32,-0.07 -0.08,-0.024 -0.16,-0.032 -0.24,-0.051 -0.31,-0.063 -0.61,-0.129 -0.93,-0.191 -0.01,0 -0.03,-0.008 -0.04,-0.008 -0.16,-0.032 -0.3,-0.063 -0.45,-0.09 -0.02,-0.012 -0.05,-0.012 -0.06,-0.024 -0.17,-0.027 -0.32,-0.058 -0.48,-0.089 l -0.02,-0.008 c -0.33,-0.071 -0.65,-0.129 -0.98,-0.199 -0.04,-0.012 -0.07,-0.012 -0.1,-0.024 -1,-0.207 -2,-0.406 -3.01,-0.617 -0.03,0 -0.1,-0.02 -0.13,-0.02 -0.12,-0.031 -0.25,-0.05 -0.37,-0.082 -0.03,0 -0.07,-0.007 -0.1,-0.019 -0.34,-0.07 -0.65,-0.129 -0.98,-0.199 -0.03,0 -0.03,0 -0.06,-0.012 -0.13,-0.027 -0.26,-0.047 -0.39,-0.078 -0.07,-0.012 -0.09,-0.02 -0.15,-0.031 -0.5,-0.098 -0.98,-0.2 -1.48,-0.301 -0.02,0 0,0 -0.02,0 -0.15,-0.028 -0.3,-0.059 -0.45,-0.09 -0.01,-0.008 -0.06,-0.02 -0.08,-0.02 -0.32,-0.07 -0.66,-0.129 -0.98,-0.199 -0.04,-0.012 -0.04,0 -0.07,-0.012 -0.31,-0.058 -0.61,-0.117 -0.92,-0.187 -0.05,-0.012 -0.08,-0.012 -0.13,-0.02 -0.14,-0.031 -0.27,-0.062 -0.41,-0.089 -0.05,-0.012 -0.11,-0.02 -0.16,-0.032 -0.11,-0.019 -0.2,-0.039 -0.31,-0.058 -0.06,-0.012 -0.1,-0.024 -0.17,-0.032 -0.11,-0.031 -0.23,-0.05 -0.35,-0.07 -0.04,-0.012 -0.09,-0.019 -0.13,-0.031 -0.15,-0.027 -0.31,-0.059 -0.46,-0.09 -0.03,-0.008 -0.06,-0.008 -0.1,-0.019 -0.14,-0.028 -0.26,-0.051 -0.4,-0.079 -0.02,-0.011 -0.05,-0.011 -0.07,-0.011 -0.13,-0.032 -0.26,-0.059 -0.38,-0.078 -0.07,-0.024 -0.11,-0.024 -0.18,-0.043 -0.14,-0.02 -0.28,-0.047 -0.42,-0.079 -0.1,-0.019 -0.2,-0.039 -0.3,-0.058 -0.03,-0.012 -0.07,-0.012 -0.11,-0.024 -0.1,-0.019 -0.19,-0.039 -0.29,-0.058 -0.07,-0.008 -0.14,-0.031 -0.21,-0.039 -0.08,-0.02 -0.16,-0.031 -0.24,-0.051 -0.1,-0.02 -0.19,-0.039 -0.28,-0.059 -0.05,-0.011 -0.11,-0.019 -0.16,-0.031 -0.16,-0.031 -0.3,-0.058 -0.46,-0.09 -0.04,0 -0.06,-0.011 -0.09,-0.019 -0.13,-0.02 -0.28,-0.051 -0.41,-0.082 -0.05,-0.008 -0.07,-0.008 -0.12,-0.02 -0.15,-0.027 -0.3,-0.058 -0.45,-0.09 v 0 c -0.16,-0.027 -0.34,-0.07 -0.5,-0.097 -0.01,0 -0.05,-0.012 -0.07,-0.012 -0.16,-0.031 -0.29,-0.059 -0.45,-0.09 -0.02,0 -0.02,0 -0.03,-0.012 -0.14,-0.027 -0.3,-0.058 -0.44,-0.078 -0.04,-0.011 -0.05,-0.011 -0.08,-0.019 -0.67,-0.129 -1.36,-0.27 -2.03,-0.403 h -0.03 c -0.17,-0.039 -0.32,-0.066 -0.49,-0.097 -0.02,0 -0.03,0 -0.04,-0.012 -0.13,-0.019 -0.27,-0.051 -0.4,-0.078 -0.05,-0.012 -0.1,-0.012 -0.15,-0.02 -0.12,-0.031 -0.25,-0.05 -0.38,-0.082 -0.03,-0.007 -0.07,-0.007 -0.1,-0.019 -0.15,-0.031 -0.32,-0.059 -0.47,-0.09 -0.03,-0.012 -0.06,-0.012 -0.09,-0.02 -0.14,-0.031 -0.27,-0.05 -0.41,-0.082 -0.03,0 -0.04,0 -0.07,-0.007 -1.18,-0.231 -2.36,-0.461 -3.54,-0.692 -0.04,0 -0.05,-0.008 -0.08,-0.008 -1.02,-0.203 -2.03,-0.39 -3.05,-0.589 -0.02,0 0,0 -0.02,0 -0.33,-0.071 -0.66,-0.133 -1,-0.192 -0.03,-0.012 -0.06,-0.019 -0.1,-0.019 -0.14,-0.032 -0.27,-0.051 -0.41,-0.082 -0.03,-0.008 -0.03,-0.008 -0.06,-0.008 -0.51,-0.102 -0.99,-0.192 -1.49,-0.289 -0.02,0 -0.04,0 -0.06,-0.012 -0.5,-0.09 -1,-0.191 -1.5,-0.281 h -0.02 c -0.15,-0.028 -0.28,-0.059 -0.43,-0.09 -0.05,-0.008 -0.08,-0.008 -0.13,-0.02 -0.14,-0.027 -0.3,-0.058 -0.44,-0.078 l -0.03,-0.011 c -0.5,-0.09 -0.98,-0.18 -1.49,-0.282 -0.03,-0.008 -0.04,-0.008 -0.08,-0.008 -0.32,-0.07 -0.65,-0.128 -0.97,-0.191 -0.02,0 -0.04,0 -0.06,-0.008 -0.31,-0.062 -0.62,-0.121 -0.93,-0.172 -0.02,-0.007 -0.06,-0.019 -0.08,-0.019 -0.16,-0.031 -0.33,-0.059 -0.49,-0.09 -0.01,0 -0.01,0 -0.03,0 -0.15,-0.031 -0.31,-0.059 -0.46,-0.09 -0.03,-0.012 -0.04,-0.012 -0.07,-0.012 -0.66,-0.128 -1.32,-0.25 -1.99,-0.367 -0.02,-0.011 -0.03,-0.011 -0.05,-0.011 -0.31,-0.059 -0.65,-0.122 -0.96,-0.18 -0.05,-0.008 -0.1,-0.02 -0.15,-0.031 -0.13,-0.02 -0.26,-0.047 -0.38,-0.071 -0.02,0 -0.03,-0.008 -0.05,-0.008 -0.5,-0.089 -1.01,-0.191 -1.51,-0.281 h -0.03 c -0.51,-0.097 -1,-0.187 -1.52,-0.277 -0.01,-0.012 -0.01,0 -0.02,-0.012 -0.13,-0.019 -0.26,-0.039 -0.38,-0.07 -0.07,-0.008 -0.14,-0.02 -0.2,-0.031 -0.31,-0.059 -0.61,-0.11 -0.92,-0.168 -0.01,0 -0.06,-0.012 -0.07,-0.012 -0.16,-0.027 -0.31,-0.059 -0.47,-0.09 h -0.01 c -152.92,-27.93 -297.83,-38.551 -386,-42.59 m 131.19,378.951 c 20,92.3 34.27,190.65 41.93,293.37 47.58,3.28 96.25,7.5 145.91,12.82 l 60.47,-282.55 c -85.6,-11.18 -168.65,-18.82 -248.31,-23.64 m 47.25,542.96 c -3.12,100.16 -12.48,196.9 -27.32,288.75 18.05,1.14 36.25,2.41 54.61,3.83 l 61,-285 c -29.83,-2.93 -59.26,-5.44 -88.29,-7.58 m -83.41,534.62 c -11.03,36.51 -23.01,71.72 -35.88,105.52 41.33,5.92 67.14,14.32 67.14,23.64 v 0 l 26.91,-125.76 c -19.56,-1.3 -39.01,-2.43 -58.17,-3.4"
         style="fill:#e5c178;fill-opacity:1;fill-rule:nonzero;stroke:none"
         id="path94" />
      <path
         d="m 1392.79,2448 c -3.03,7.96 -6.12,15.84 -9.24,23.64 h 76.38 c 0,-9.32 -25.81,-17.72 -67.14,-23.64"
         style="fill:#d36e66;fill-opacity:1;fill-rule:nonzero;stroke:none"
         id="path96" />
      <path
         d="m 1390.12,1012.21 c 29.87,77.19 55.06,162.01 74.71,252.69 79.66,4.82 162.71,12.46 248.31,23.64 l 52.11,-243.49 c -131.63,-18.07 -257.38,-28.27 -375.13,-32.84"
         style="fill:#e0a14c;fill-opacity:1;fill-rule:nonzero;stroke:none"
         id="path98" />
      <path
         d="m 1506.76,1558.27 c 4.26,57.19 6.47,115.75 6.47,175.31 0,24.94 -0.39,49.73 -1.15,74.28 29.03,2.14 58.46,4.65 88.29,7.58 l 52.3,-244.35 c -49.66,-5.32 -98.33,-9.54 -145.91,-12.82"
         style="fill:#e0a14c;fill-opacity:1;fill-rule:nonzero;stroke:none"
         id="path100" />
      <path
         d="m 1484.76,2096.61 c -14.02,86.78 -32.94,169.17 -56.09,245.87 19.16,0.97 38.61,2.1 58.17,3.4 l 52.53,-245.44 c -18.36,-1.42 -36.56,-2.69 -54.61,-3.83"
         style="fill:#e0a14c;fill-opacity:1;fill-rule:nonzero;stroke:none"
         id="path102" />
      <path
         d="m 918.074,1272.27 c -20.707,1.82 -40.711,3.75 -59.945,5.77 16.906,81.56 33.816,163.12 50.723,244.67 2.726,13.16 5.457,26.31 8.183,39.46 19.535,-1.61 39.598,-3.12 60.211,-4.5 -5.887,-28.4 -11.777,-56.8 -17.668,-85.2 -13.832,-66.73 -27.668,-133.47 -41.504,-200.2 m 110.256,531.8 c -20.66,1.19 -40.744,2.51 -60.326,3.96 3.039,14.66 6.082,29.32 9.121,43.98 16.75,80.81 33.505,161.62 50.255,242.43 19.76,-1.06 39.98,-2 60.59,-2.78 -0.47,-2.18 -0.92,-4.36 -1.37,-6.53 -19.43,-93.69 -38.85,-187.37 -58.27,-281.06"
         style="fill:#ffdd9e;fill-opacity:1;fill-rule:nonzero;stroke:none"
         id="path104" />
      <path
         d="m 850.992,1065.39 c -17.086,0 -34.312,12.75 -29.844,34.31 l 0.407,1.93 c 7.371,46.13 19.07,91.99 28.55,137.73 2.676,12.89 5.348,25.79 8.024,38.68 19.234,-2.02 39.238,-3.95 59.945,-5.77 -4.883,-23.55 -9.769,-47.11 -14.652,-70.66 -7.785,-37.59 -15.578,-75.18 -23.371,-112.75 -3.36,-16.21 -16.172,-23.47 -29.059,-23.47"
         style="fill:#fbc47c;fill-opacity:1;fill-rule:nonzero;stroke:none"
         id="path106" />
      <path
         d="m 977.246,1557.67 c -20.613,1.38 -40.676,2.89 -60.211,4.5 16.992,81.96 33.977,163.9 50.969,245.86 19.582,-1.45 39.666,-2.77 60.326,-3.96 -0.16,-0.76 -0.32,-1.54 -0.48,-2.3 -16.87,-81.37 -33.737,-162.73 -50.604,-244.1"
         style="fill:#fbc47c;fill-opacity:1;fill-rule:nonzero;stroke:none"
         id="path108" />
      <path
         d="m 1087.97,2091.66 c -20.61,0.78 -40.83,1.72 -60.59,2.78 1.97,9.48 3.93,18.95 5.9,28.43 7.79,37.59 15.58,75.18 23.38,112.76 3.36,16.21 16.16,23.47 29.05,23.47 17.09,0 34.31,-12.76 29.85,-34.31 l -0.41,-1.94 c -7.02,-43.94 -17.97,-87.62 -27.18,-131.19"
         style="fill:#fbc47c;fill-opacity:1;fill-rule:nonzero;stroke:none"
         id="path110" />
      <path
         d="m 4071.46,1248.2 -1413.92,-403.661 -24.8,86.852 1413.92,403.659 24.8,-86.85"
         style="fill:#6e7fdd;fill-opacity:1;fill-rule:nonzero;stroke:none"
         id="path112" />
      <path
         d="m 4071.46,1248.2 -644.78,-184.08 -24.8,86.85 644.78,184.08 24.8,-86.85"
         style="fill:#eb725f;fill-opacity:1;fill-rule:nonzero;stroke:none"
         id="path114" />
      <path
         d="M 4494.3,1415.88 C 4562.92,1175.51 4423.69,925.02 4183.32,856.402 3942.95,787.77 3692.46,927 3623.84,1167.37 c -68.63,240.37 70.6,490.86 310.97,559.48 240.38,68.63 490.86,-70.6 559.49,-310.97"
         style="fill:#eb725f;fill-opacity:1;fill-rule:nonzero;stroke:none"
         id="path116" />
      <path
         d="m 4409.41,1391.65 c 55.24,-193.5 -56.83,-395.13 -250.32,-450.369 -193.49,-55.25 -395.13,56.828 -450.37,250.319 -55.24,193.5 56.84,395.13 250.32,450.37 193.5,55.24 395.13,-56.83 450.37,-250.32"
         style="fill:#d0dbf7;fill-opacity:1;fill-rule:nonzero;stroke:none"
         id="path118" />
      <path
         d="m 4332.94,1369.81 -43.43,-12.39 c -36.27,127.06 -169.17,200.93 -296.24,164.65 l -12.39,43.42 c 151.01,43.11 308.94,-44.67 352.06,-195.68"
         style="fill:#ffffff;fill-opacity:1;fill-rule:nonzero;stroke:none"
         id="path120" />
      <path
         d="m 3721.73,3555.58 -433.21,131.34 -260.5,-859.24 673.15,-204.08 189.8,626.05 -169.24,305.93"
         style="fill:#e2e6ff;fill-opacity:1;fill-rule:nonzero;stroke:none"
         id="path122" />
      <path
         d="m 3677.97,3215.95 -30.96,57.9 -138.7,-74.16 -74.17,138.69 -57.89,-30.95 74.17,-138.7 -138.7,-74.17 30.96,-57.89 138.7,74.17 74.17,-138.7 57.89,30.96 -74.17,138.69 138.7,74.16"
         style="fill:#cad2f9;fill-opacity:1;fill-rule:nonzero;stroke:none"
         id="path124" />
      <path
         d="m 2572.14,4143.92 -439.83,-107.14 212.49,-872.35 683.42,166.48 -154.82,635.59 -301.26,177.42"
         style="fill:#e2e6ff;fill-opacity:1;fill-rule:nonzero;stroke:none"
         id="path126" />
      <path
         d="m 2707.11,3829.2 -56.08,34.12 -81.74,-134.38 -134.39,81.74 -34.11,-56.09 134.38,-81.73 -81.74,-134.37 56.09,-34.12 81.74,134.37 134.37,-81.73 34.12,56.09 -134.38,81.73 81.74,134.37"
         style="fill:#cad2f9;fill-opacity:1;fill-rule:nonzero;stroke:none"
         id="path128" />
      <path
         d="m 4113.37,4065.37 h -111.81 v 111.81 h -39.79 v -111.81 h -111.8 v -39.79 h 111.8 v -111.8 h 39.79 v 111.8 h 111.81 v 39.79"
         style="fill:#e2e6ff;fill-opacity:1;fill-rule:nonzero;stroke:none"
         id="path130" />
      <path
         d="m 4363.78,3680.67 h -60.91 v 60.9 h -21.67 v -60.9 h -60.9 V 3659 h 60.9 v -60.9 h 21.67 v 60.9 h 60.91 v 21.67"
         style="fill:#e2e6ff;fill-opacity:1;fill-rule:nonzero;stroke:none"
         id="path132" />
      <path
         d="m 3691.72,3786.93 h -73.76 v 73.74 h -26.24 v -73.74 h -73.75 v -26.25 h 73.75 v -73.75 h 26.24 v 73.75 h 73.76 v 26.25"
         style="fill:#e2e6ff;fill-opacity:1;fill-rule:nonzero;stroke:none"
         id="path134" />
      <path
         d="M 899.625,3798.43 H 787.813 v 111.8 H 748.02 v -111.8 H 636.223 v -39.8 H 748.02 v -111.8 h 39.793 v 111.8 h 111.812 v 39.8"
         style="fill:#e2e6ff;fill-opacity:1;fill-rule:nonzero;stroke:none"
         id="path136" />
      <path
         d="m 1387.63,3865.16 h -60.91 v 60.9 h -21.67 v -60.9 h -60.89 v -21.67 h 60.89 v -60.9 h 21.67 v 60.9 h 60.91 v 21.67"
         style="fill:#e2e6ff;fill-opacity:1;fill-rule:nonzero;stroke:none"
         id="path138" />
      <path
         d="m 1016.85,3368.53 h -73.752 v 73.75 h -26.246 v -73.75 h -73.747 v -26.25 h 73.747 v -73.74 h 26.246 v 73.74 h 73.752 v 26.25"
         style="fill:#e2e6ff;fill-opacity:1;fill-rule:nonzero;stroke:none"
         id="path140" />
      <path
         d="m 3465.3,4250.45 c 0,-13.39 -10.86,-24.24 -24.24,-24.24 -13.38,0 -24.23,10.85 -24.23,24.24 0,13.38 10.85,24.23 24.23,24.23 13.38,0 24.24,-10.85 24.24,-24.23"
         style="fill:#cad2f9;fill-opacity:1;fill-rule:nonzero;stroke:none"
         id="path142" />
      <path
         d="m 4559.82,3378.97 c 0,-25.35 -20.54,-45.89 -45.89,-45.89 -25.36,0 -45.9,20.54 -45.9,45.89 0,25.35 20.54,45.9 45.9,45.9 25.35,0 45.89,-20.55 45.89,-45.9"
         style="fill:#cad2f9;fill-opacity:1;fill-rule:nonzero;stroke:none"
         id="path144" />
      <path
         d="m 3106.93,3997.67 c 0,-13.38 -10.85,-24.23 -24.23,-24.23 -13.39,0 -24.24,10.85 -24.24,24.23 0,13.39 10.85,24.24 24.24,24.24 13.38,0 24.23,-10.85 24.23,-24.24"
         style="fill:#cad2f9;fill-opacity:1;fill-rule:nonzero;stroke:none"
         id="path146" />
      <path
         d="m 1726.59,4250.45 c 0,-25.36 -20.55,-45.9 -45.9,-45.9 -25.35,0 -45.9,20.54 -45.9,45.9 0,25.34 20.55,45.89 45.9,45.89 25.35,0 45.9,-20.55 45.9,-45.89"
         style="fill:#cad2f9;fill-opacity:1;fill-rule:nonzero;stroke:none"
         id="path148" />
      <path
         d="m 1904.93,3763.8 c 0,-13.38 -10.85,-24.23 -24.24,-24.23 -13.39,0 -24.23,10.85 -24.23,24.23 0,13.39 10.84,24.24 24.23,24.24 13.39,0 24.24,-10.85 24.24,-24.24"
         style="fill:#cad2f9;fill-opacity:1;fill-rule:nonzero;stroke:none"
         id="path150" />
      <path
         d="m 488.652,3294.43 c 0,-13.38 -10.847,-24.24 -24.238,-24.24 -13.383,0 -24.234,10.86 -24.234,24.24 0,13.39 10.851,24.24 24.234,24.24 13.391,0 24.238,-10.85 24.238,-24.24"
         style="fill:#cad2f9;fill-opacity:1;fill-rule:nonzero;stroke:none"
         id="path152" />
    </g>
  </g>
</svg>
