<svg width="36" height="36" viewBox="0 0 36 36" fill="none" xmlns="http://www.w3.org/2000/svg">
<g id="vuesax/linear/notification-circle">
<g id="notification-circle">
<path id="Vector" d="M28.5 12C30.9853 12 33 9.98528 33 7.5C33 5.01472 30.9853 3 28.5 3C26.0147 3 24 5.01472 24 7.5C24 9.98528 26.0147 12 28.5 12Z" stroke="#01E887" stroke-width="2" stroke-linecap="round" stroke-linejoin="round"/>
<path id="Vector_2" d="M21.03 3.3C20.04 3.105 19.035 3 18 3C9.72 3 3 9.72 3 18C3 26.28 9.72 33 18 33C26.28 33 33 26.28 33 18C33 16.98 32.895 15.975 32.7 15.015" stroke="#01E887" stroke-width="2" stroke-linecap="round" stroke-linejoin="round"/>
</g>
</g>
</svg>
