<svg width="22" height="22" viewBox="0 0 22 22" fill="none" xmlns="http://www.w3.org/2000/svg">
<g id="vuesax/linear/profile">
<g id="profile">
<path id="Vector" d="M11.1463 9.96415C11.0546 9.95498 10.9446 9.95498 10.8438 9.96415C8.66213 9.89081 6.92963 8.10331 6.92963 5.90331C6.92963 3.65748 8.74463 1.83331 10.9996 1.83331C13.2455 1.83331 15.0696 3.65748 15.0696 5.90331C15.0605 8.10331 13.328 9.89081 11.1463 9.96415Z" stroke="#0968E5" stroke-width="1.5" stroke-linecap="round" stroke-linejoin="round"/>
<path id="Vector_2" d="M6.5631 13.3467C4.34477 14.8317 4.34477 17.2517 6.5631 18.7275C9.08394 20.4142 13.2181 20.4142 15.7389 18.7275C17.9573 17.2425 17.9573 14.8225 15.7389 13.3467C13.2273 11.6692 9.0931 11.6692 6.5631 13.3467Z" stroke="#0968E5" stroke-width="1.5" stroke-linecap="round" stroke-linejoin="round"/>
</g>
</g>
</svg>
