<svg width="16" height="20" viewBox="0 0 16 20" fill="none" xmlns="http://www.w3.org/2000/svg">
<g id="Group">
<path id="Vector" d="M15.2 3.19999H12.72C12.3373 1.33886 10.7001 0.0024 8.79999 0H7.19997C5.29988 0.0024 3.66271 1.33886 3.27998 3.19999H0.799989C0.358163 3.19999 0 3.55816 0 3.99998C0 4.44181 0.358163 4.80001 0.799989 4.80001H1.59998V15.2C1.60264 17.4081 3.39196 19.1974 5.6 19.2H10.4C12.608 19.1974 14.3974 17.4081 14.4 15.2V4.80001H15.2C15.6418 4.80001 16 4.44184 16 4.00002C16 3.55819 15.6418 3.19999 15.2 3.19999ZM7.20001 13.6C7.20001 14.0419 6.84185 14.4 6.40002 14.4C5.95816 14.4 5.6 14.0419 5.6 13.6V8.80003C5.6 8.3582 5.95816 8.00004 6.39998 8.00004C6.84181 8.00004 7.19997 8.3582 7.19997 8.80003V13.6H7.20001ZM10.4 13.6C10.4 14.0419 10.0418 14.4 9.60001 14.4C9.15819 14.4 8.80003 14.0419 8.80003 13.6V8.80003C8.80003 8.3582 9.15819 8.00004 9.60001 8.00004C10.0418 8.00004 10.4 8.3582 10.4 8.80003V13.6ZM4.93681 3.19999C5.27708 2.24183 6.18323 1.60122 7.20001 1.59998H8.80003C9.8168 1.60122 10.723 2.24183 11.0632 3.19999H4.93681Z" fill="white"/>
</g>
</svg>
